<svg width="21" height="18" viewBox="0 0 21 18" fill="none" xmlns="http://www.w3.org/2000/svg">
<path d="M12.4548 0.895769C11.2674 0.119396 9.73317 0.119381 8.54581 0.895712L0.823392 5.94489C0.623306 6.07572 0.501934 6.29797 0.500023 6.53702C0.499812 6.56345 0.501063 6.5897 0.50372 6.61565C0.501491 6.63864 0.500349 6.66195 0.500349 6.68554V12.3998C0.500349 12.7943 0.820149 13.1141 1.21464 13.1141C1.60912 13.1141 1.92892 12.7943 1.92892 12.3998V7.88901L3.3575 8.85602V14.1141C3.3575 14.2837 3.41863 14.4486 3.5284 14.5777L3.52948 14.579L3.53231 14.5823L3.54068 14.592L3.56824 14.6231C3.59138 14.6488 3.62408 14.6847 3.66611 14.7288C3.75013 14.8173 3.87174 14.94 4.0293 15.0854C4.34394 15.3758 4.80482 15.7597 5.39892 16.143C6.58556 16.9086 8.32584 17.6856 10.5005 17.6856C12.6752 17.6856 14.4154 16.9084 15.602 16.143C16.1961 15.7597 16.657 15.3758 16.9715 15.0854C17.1291 14.94 17.2507 14.8173 17.3347 14.7288C17.3767 14.6846 17.4094 14.6488 17.4325 14.6231L17.4601 14.592L17.4685 14.5823L17.4712 14.579L17.4732 14.5767C17.583 14.4476 17.6432 14.2837 17.6432 14.1141V8.85564L20.1861 7.13424C20.3841 7.00023 20.5024 6.8361 20.5 6.53702C20.4981 6.29798 20.3767 6.07574 20.1767 5.94491L12.4548 0.895769ZM16.2147 9.8227V13.8316C16.1577 13.889 16.0868 13.9578 16.0025 14.0357C15.7368 14.281 15.3405 14.6116 14.8275 14.9426C13.7998 15.6056 12.3258 16.257 10.5005 16.257C8.67517 16.257 7.20108 15.6056 6.17338 14.9426C5.6603 14.6116 5.26399 14.281 4.99824 14.0357C4.91394 13.9578 4.84307 13.889 4.78607 13.8316V9.82302L8.49827 12.3358C9.70747 13.1543 11.2931 13.1543 12.5023 12.3357L16.2147 9.8227ZM4.07179 14.1141L3.5284 14.5777C3.5284 14.5777 3.52756 14.5767 4.07179 14.1141ZM9.32758 2.09139C10.04 1.62558 10.9606 1.6256 11.673 2.09143L18.4964 6.54268L11.7015 11.1528C10.976 11.6439 10.0246 11.6439 9.29907 11.1528L2.50377 6.55304L9.32758 2.09139Z" fill="#212121"/>
</svg>
