<svg width="19" height="16" viewBox="0 0 19 16" fill="none" xmlns="http://www.w3.org/2000/svg">
<path d="M9.5005 0.287109C8.08176 0.287109 6.93164 1.43723 6.93164 2.85598C6.93164 4.27471 8.08176 5.42484 9.5005 5.42484C10.9192 5.42484 12.0694 4.27471 12.0694 2.85598C12.0694 1.43723 10.9192 0.287109 9.5005 0.287109Z" fill="#4B4B4B"/>
<path d="M15.286 1.57031C14.2209 1.57031 13.3574 2.43376 13.3574 3.49888C13.3574 4.56401 14.2209 5.42746 15.286 5.42746C16.3511 5.42746 17.2146 4.56401 17.2146 3.49888C17.2146 2.43376 16.3511 1.57031 15.286 1.57031Z" fill="#4B4B4B"/>
<path d="M3.71373 1.57031C2.6486 1.57031 1.78516 2.43376 1.78516 3.49888C1.78516 4.56401 2.6486 5.42746 3.71373 5.42746C4.77885 5.42746 5.6423 4.56401 5.6423 3.49888C5.6423 2.43376 4.77885 1.57031 3.71373 1.57031Z" fill="#4B4B4B"/>
<path d="M5.6426 7.9903C5.64708 7.28404 6.22098 6.71289 6.92829 6.71289H12.0711C12.7812 6.71289 13.3569 7.28853 13.3569 7.99862V11.8561C13.3569 11.9892 13.3502 12.1209 13.3369 12.2505C13.309 12.5257 13.2521 12.7924 13.1694 13.0475C12.6675 14.5947 11.2142 15.7133 9.49972 15.7133C7.76889 15.7133 6.30434 14.5732 5.81598 13.0031C5.70329 12.6408 5.64258 12.2556 5.64258 11.8561V7.9986C5.64258 7.99584 5.64259 7.99306 5.6426 7.9903Z" fill="#4B4B4B"/>
<path d="M4.35714 7.99861C4.35714 7.53025 4.48236 7.09112 4.70115 6.71289H1.78571C1.07564 6.71289 0.5 7.28853 0.5 7.99861V11.2133C0.5 12.9885 1.93909 14.4276 3.71429 14.4276C4.14001 14.4276 4.54641 14.3448 4.91827 14.1945C4.55951 13.493 4.35714 12.6982 4.35714 11.8561V7.99861Z" fill="#4B4B4B"/>
<path d="M14.6431 7.99862V11.8561C14.6431 12.6982 14.4407 13.493 14.082 14.1945C14.4539 14.3448 14.8603 14.4276 15.286 14.4276C17.0612 14.4276 18.5003 12.9885 18.5003 11.2133V7.99861C18.5003 7.28853 17.9246 6.71289 17.2145 6.71289H14.2991C14.5179 7.09112 14.6431 7.53025 14.6431 7.99862Z" fill="#4B4B4B"/>
</svg>
