<svg width="22" height="20" viewBox="0 0 22 20" fill="none" xmlns="http://www.w3.org/2000/svg">
<path fill-rule="evenodd" clip-rule="evenodd" d="M11.0015 0.294922C5.02041 0.294922 0.171875 4.66016 0.171875 10.0449C0.171875 15.4297 5.02041 19.7949 11.0015 19.7949C16.9825 19.7949 21.8311 15.4297 21.8311 10.0449C21.8311 4.66016 16.9825 0.294922 11.0015 0.294922ZM9.87954 18.3416C7.82484 18.1201 5.92372 17.292 4.43772 15.9542C2.68447 14.3757 1.71897 12.2771 1.71897 10.0448C1.71897 8.03528 2.50182 6.13431 3.93701 4.62329C3.97397 5.02253 4.06524 5.45054 4.04187 5.75649C3.95648 6.87188 3.83423 7.56995 4.5594 8.51096C4.8419 8.87748 4.91131 9.4029 5.04881 9.82712C5.1833 10.2422 5.72056 10.4598 6.09111 10.7155C6.83872 11.2316 7.55394 11.8314 8.34669 12.2856C8.86989 12.5853 9.19671 12.7344 9.04348 13.3093C8.92024 13.7716 8.88582 14.0563 8.62019 14.4682C8.53912 14.5938 8.92618 15.4018 9.05499 15.5178C9.44537 15.8692 9.83274 16.1916 10.2583 16.508C10.918 16.9988 10.1942 17.6364 9.87954 18.3416ZM17.5652 15.9542C16.2306 17.1558 14.5611 17.9458 12.7463 18.2549C13.0035 17.6823 13.4614 17.1735 13.8862 16.8786C14.2557 16.6219 14.7185 16.1281 14.9115 15.7371C15.1044 15.3465 15.3599 15.0079 15.6184 14.6488C15.9863 14.1379 14.7115 13.3674 14.2984 13.2059C13.3689 12.8426 12.6691 12.3523 11.843 11.829C11.2544 11.4561 10.0594 12.0237 9.39486 11.7625C8.4847 11.4047 7.73485 10.783 6.94372 10.2467C6.12734 9.6931 6.1668 9.04778 6.1668 8.23117C6.80627 8.2524 7.71595 8.07184 8.1405 8.53482C8.27446 8.68093 8.73508 9.33367 9.04341 9.10173C9.29531 8.91221 8.85676 8.15256 8.77205 7.97396C8.51146 7.42482 9.3658 7.21065 9.8031 6.83828C10.3737 6.35246 11.5978 5.59056 11.5011 5.24232C11.4043 4.89409 10.2763 3.90746 9.61374 4.0614C9.51445 4.08446 8.64027 4.9097 8.47137 5.03917C8.47585 4.76982 8.48033 4.50053 8.48491 4.23118C8.48777 4.06112 8.13253 3.88656 8.14903 3.77687C8.19069 3.49965 9.04779 2.99654 9.261 2.77576C9.11162 2.69171 8.6019 2.29754 8.44763 2.35538C8.07411 2.49554 7.65228 2.5921 7.27876 2.73221C7.27876 2.61559 7.26304 2.50604 7.24429 2.39785C7.99279 2.09949 8.78475 1.89203 9.60338 1.78135L10.3367 2.04667L10.8544 2.59984L11.3711 3.07951L11.8228 3.21053L12.5402 2.60138L12.3552 2.16653V1.77563C13.774 1.96117 15.1138 2.4377 16.2873 3.17251C16.0773 3.18943 15.8466 3.21723 15.5864 3.24704C15.4789 3.18985 15.3409 3.16388 15.2237 3.12409C15.5638 3.78231 15.9184 4.43143 16.2788 5.08093C16.6637 5.77473 17.5176 6.51892 17.6675 7.25129C17.8442 8.11454 17.7216 8.89867 17.8183 9.91431C17.9114 10.8924 19.0431 12.0036 19.0431 12.0036C19.0431 12.0036 19.5657 12.1639 20.0003 12.1081C19.5951 13.551 18.7646 14.8743 17.5652 15.9542Z" fill="#00579B"/>
</svg>
