<svg width="22" height="20" viewBox="0 0 22 20" fill="none" xmlns="http://www.w3.org/2000/svg">
<path fill-rule="evenodd" clip-rule="evenodd" d="M11.0015 0.5C5.02041 0.5 0.171875 4.86523 0.171875 10.25C0.171875 15.6348 5.02041 20 11.0015 20C16.9825 20 21.8311 15.6348 21.8311 10.25C21.8311 4.86523 16.9825 0.5 11.0015 0.5ZM9.87954 18.5467C7.82484 18.3252 5.92372 17.4971 4.43772 16.1593C2.68447 14.5808 1.71897 12.4822 1.71897 10.2499C1.71897 8.24035 2.50182 6.33939 3.93701 4.82837C3.97397 5.2276 4.06524 5.65562 4.04187 5.96157C3.95648 7.07696 3.83423 7.77503 4.5594 8.71604C4.8419 9.08256 4.91131 9.60798 5.04881 10.0322C5.1833 10.4472 5.72056 10.6649 6.09111 10.9206C6.83872 11.4367 7.55394 12.0365 8.34669 12.4907C8.86989 12.7904 9.19671 12.9395 9.04348 13.5144C8.92024 13.9766 8.88582 14.2614 8.62019 14.6732C8.53912 14.7989 8.92618 15.6069 9.05499 15.7229C9.44537 16.0743 9.83274 16.3967 10.2583 16.7131C10.918 17.2038 10.1942 17.8415 9.87954 18.5467ZM17.5652 16.1593C16.2306 17.3609 14.5611 18.1509 12.7463 18.46C13.0035 17.8874 13.4614 17.3786 13.8862 17.0837C14.2557 16.827 14.7185 16.3332 14.9115 15.9422C15.1044 15.5516 15.3599 15.213 15.6184 14.8539C15.9863 14.343 14.7115 13.5725 14.2984 13.411C13.3689 13.0477 12.6691 12.5574 11.843 12.034C11.2544 11.6612 10.0594 12.2288 9.39486 11.9676C8.4847 11.6098 7.73485 10.9881 6.94372 10.4517C6.12734 9.89818 6.1668 9.25285 6.1668 8.43624C6.80627 8.45748 7.71595 8.27692 8.1405 8.7399C8.27446 8.88601 8.73508 9.53874 9.04341 9.30681C9.29531 9.11729 8.85676 8.35763 8.77205 8.17904C8.51146 7.6299 9.3658 7.41573 9.8031 7.04335C10.3737 6.55754 11.5978 5.79563 11.5011 5.4474C11.4043 5.09917 10.2763 4.11254 9.61374 4.26648C9.51445 4.28954 8.64027 5.11478 8.47137 5.24424C8.47585 4.9749 8.48033 4.7056 8.48491 4.43626C8.48777 4.2662 8.13253 4.09163 8.14903 3.98195C8.19069 3.70473 9.04779 3.20162 9.261 2.98084C9.11162 2.89679 8.6019 2.50262 8.44763 2.56046C8.07411 2.70062 7.65228 2.79718 7.27876 2.93729C7.27876 2.82067 7.26304 2.71112 7.24429 2.60293C7.99279 2.30457 8.78475 2.0971 9.60338 1.98643L10.3367 2.25174L10.8544 2.80492L11.3711 3.28459L11.8228 3.4156L12.5402 2.80646L12.3552 2.3716V1.98071C13.774 2.16624 15.1138 2.64278 16.2873 3.37759C16.0773 3.39451 15.8466 3.42231 15.5864 3.45212C15.4789 3.39493 15.3409 3.36896 15.2237 3.32917C15.5638 3.98738 15.9184 4.63651 16.2788 5.28601C16.6637 5.97981 17.5176 6.72399 17.6675 7.45637C17.8442 8.31962 17.7216 9.10374 17.8183 10.1194C17.9114 11.0974 19.0431 12.2087 19.0431 12.2087C19.0431 12.2087 19.5657 12.369 20.0003 12.3131C19.5951 13.7561 18.7646 15.0794 17.5652 16.1593Z" fill="#00579B"/>
</svg>
