<svg width="219" height="218" viewBox="0 0 219 218" fill="none" xmlns="http://www.w3.org/2000/svg">
<g filter="url(#filter0_d_869_3748)">
<rect x="59.333" y="42" width="100" height="100" rx="16" fill="white"/>
</g>
<g clip-path="url(#clip0_869_3748)">
<path d="M131.584 86.5452C130.417 85.5873 128.925 85.2542 127.489 85.632L125.707 86.1007C125.397 84.6362 124.936 83.2267 124.335 81.8912L127.533 79.9492C128.271 79.5008 128.525 78.5077 128.098 77.7309C127.672 76.9543 126.728 76.6878 125.989 77.1366L122.789 79.0797C121.99 77.8674 121.059 76.7431 120.008 75.7273L121.288 74.3351C122.316 73.2161 122.788 71.6904 122.583 70.1491C122.377 68.6077 121.524 67.2775 120.243 66.4994C118.961 65.7211 117.44 65.6095 116.068 66.193C114.696 66.7765 113.676 67.9693 113.269 69.4657L112.767 71.3099C111.415 70.8641 110.025 70.581 108.611 70.4617V66.5844C108.611 65.6875 107.92 64.9604 107.067 64.9604C106.214 64.9604 105.523 65.6875 105.523 66.5844V70.4617C104.108 70.581 102.719 70.8642 101.367 71.3099L100.865 69.4657C100.458 67.9694 99.4379 66.7764 98.066 66.193C96.6943 65.6095 95.1724 65.7213 93.8907 66.4994C92.6091 67.2776 91.7563 68.6078 91.5508 70.149C91.3453 71.6902 91.8174 73.216 92.8461 74.335L94.1261 75.7272C93.0743 76.7431 92.144 77.8672 91.3448 79.0796L88.1448 77.1365C87.4062 76.6878 86.4619 76.9542 86.0356 77.7308C85.6092 78.5076 85.8622 79.5008 86.6007 79.9491L89.799 81.8911C89.1978 83.2265 88.7366 84.6361 88.4271 86.1006L86.6444 85.6319C85.2085 85.2541 83.7164 85.5873 82.55 86.5451C81.3838 87.5031 80.7148 88.945 80.7148 90.5013C80.7148 92.0577 81.3838 93.4995 82.5502 94.4574C83.7166 95.4154 85.2091 95.7483 86.6446 95.3706L88.4273 94.902C88.7367 96.3664 89.1981 97.776 89.7992 99.1114L86.6008 101.053C85.8624 101.502 85.6093 102.495 86.0357 103.272C86.3217 103.793 86.8407 104.084 87.3743 104.084C87.6362 104.084 87.9018 104.014 88.1449 103.866L91.3449 101.923C92.144 103.135 93.0743 104.26 94.1261 105.275L92.846 106.668C91.8173 107.787 91.3452 109.312 91.5508 110.854C91.7564 112.395 92.6092 113.725 93.8908 114.503C94.6298 114.952 95.4486 115.179 96.2727 115.179C96.8775 115.179 97.4854 115.056 98.0661 114.81C99.438 114.226 100.458 113.033 100.865 111.537L101.367 109.693C102.719 110.138 104.109 110.422 105.523 110.541V114.418C105.523 115.315 106.214 116.042 107.067 116.042C107.92 116.042 108.611 115.315 108.611 114.418V110.541C110.025 110.422 111.415 110.138 112.767 109.693L113.269 111.537C113.676 113.033 114.696 114.226 116.068 114.81C117.44 115.393 118.961 115.281 120.243 114.503C121.525 113.725 122.377 112.395 122.583 110.854C122.788 109.312 122.316 107.787 121.288 106.668L120.008 105.275C121.059 104.26 121.99 103.135 122.789 101.923L125.989 103.866C126.232 104.014 126.497 104.084 126.759 104.084C127.293 104.084 127.812 103.793 128.098 103.272C128.524 102.495 128.271 101.502 127.533 101.053L124.334 99.1114C124.936 97.776 125.397 96.3664 125.706 94.902L127.489 95.3706C128.925 95.7483 130.417 95.4151 131.584 94.4574C132.75 93.4995 133.419 92.0577 133.419 90.5013C133.419 88.945 132.75 87.5031 131.584 86.5452ZM129.683 91.8975C129.272 92.2355 128.745 92.353 128.238 92.2199L124.849 91.3287C124.421 91.2162 123.969 91.3013 123.605 91.5621C123.241 91.823 123 92.235 122.943 92.6945C122.392 97.148 120.213 101.115 116.807 103.865C116.458 104.147 116.24 104.572 116.208 105.034C116.175 105.496 116.332 105.95 116.638 106.282L119.068 108.925C119.431 109.32 119.597 109.859 119.525 110.403C119.452 110.947 119.151 111.416 118.699 111.691C118.247 111.965 117.71 112.005 117.225 111.799C116.741 111.593 116.381 111.172 116.238 110.644L115.281 107.126C115.16 106.681 114.864 106.312 114.467 106.11C114.07 105.909 113.611 105.896 113.204 106.073C111.25 106.926 109.185 107.359 107.067 107.359C104.949 107.359 102.884 106.926 100.93 106.073C100.523 105.895 100.063 105.909 99.6668 106.11C99.2702 106.311 98.9742 106.681 98.8531 107.126L97.8964 110.644C97.7527 111.172 97.3927 111.593 96.9086 111.799C96.4245 112.005 95.8874 111.965 95.4351 111.691C94.9827 111.416 94.6819 110.947 94.6093 110.403C94.5367 109.859 94.7034 109.32 95.0663 108.925L97.4965 106.282C97.8023 105.95 97.9587 105.495 97.9264 105.034C97.8939 104.572 97.6758 104.147 97.3268 103.865C93.9212 101.115 91.7423 97.148 91.1911 92.6945C91.1343 92.235 90.8935 91.823 90.5296 91.5621C90.2708 91.3766 89.9673 91.2802 89.6599 91.2802C89.5349 91.2802 89.4091 91.2961 89.2854 91.3287L85.8958 92.2199C85.389 92.3528 84.8624 92.2357 84.4509 91.8975C84.039 91.5594 83.803 91.0505 83.803 90.5013C83.803 89.9521 84.039 89.4433 84.4507 89.1052C84.8623 88.7672 85.3888 88.6496 85.8956 88.7828L89.2852 89.674C89.7126 89.7867 90.1654 89.7015 90.5292 89.4406C90.8932 89.1797 91.134 88.7676 91.1908 88.3082C91.742 83.8546 93.921 79.8874 97.3266 77.1372C97.6756 76.8553 97.8937 76.4304 97.9261 75.9688C97.9586 75.5072 97.8022 75.0531 97.4963 74.7204L95.0663 72.0773C94.7033 71.6824 94.5366 71.144 94.6092 70.5999C94.6818 70.0561 94.9826 69.5867 95.4349 69.312C95.8873 69.0374 96.4242 68.998 96.9084 69.204C97.3925 69.4098 97.7526 69.8308 97.8962 70.3588L98.8529 73.8764C98.9739 74.3217 99.2701 74.6913 99.6666 74.8925C100.063 75.0937 100.523 75.1072 100.929 74.9297C102.884 74.0766 104.948 73.644 107.067 73.644C109.185 73.644 111.25 74.0766 113.204 74.9297C113.611 75.1072 114.07 75.0938 114.467 74.8925C114.864 74.6914 115.16 74.3218 115.281 73.8764L116.237 70.3588C116.381 69.8308 116.741 69.4098 117.225 69.204C117.709 68.9982 118.246 69.0375 118.699 69.312C119.151 69.5867 119.452 70.0561 119.525 70.5999C119.597 71.1438 119.43 71.6823 119.068 72.0773L116.637 74.7205C116.332 75.0532 116.175 75.5075 116.208 75.9689C116.24 76.4305 116.458 76.8554 116.807 77.1373C120.213 79.8874 122.392 83.8547 122.943 88.3083C123 88.7677 123.241 89.1798 123.604 89.4407C123.969 89.7016 124.421 89.7867 124.848 89.6741L128.238 88.7829C128.745 88.6498 129.271 88.7671 129.683 89.1053C130.095 89.4433 130.331 89.9521 130.331 90.5013C130.331 91.0505 130.095 91.5594 129.683 91.8975Z" fill="#9083D5"/>
<path d="M110.641 94.8318C110.641 92.6496 112.318 90.96 114.273 90.96C116.228 90.96 117.905 92.6496 117.905 94.8318C117.905 97.0139 116.228 98.7036 114.273 98.7036C112.318 98.7036 110.641 97.0139 110.641 94.8318ZM111.729 94.8318C111.729 96.2314 112.822 97.4557 114.273 97.4557C115.723 97.4557 116.817 96.2314 116.817 94.8318C116.817 93.4322 115.723 92.2078 114.273 92.2078C112.822 92.2078 111.729 93.4322 111.729 94.8318Z" fill="#9083D5" stroke="#9083D5" stroke-width="2"/>
<path d="M96.2295 87.2532C96.2295 84.4741 98.3685 82.2988 100.891 82.2988C103.414 82.2988 105.553 84.4741 105.553 87.2532C105.553 90.0324 103.414 92.2077 100.891 92.2077C98.3685 92.2077 96.2295 90.0324 96.2295 87.2532ZM97.3176 87.2532C97.3176 89.2498 98.8729 90.9598 100.891 90.9598C102.909 90.9598 104.465 89.2498 104.465 87.2532C104.465 85.2567 102.909 83.5467 100.891 83.5467C98.8729 83.5467 97.3176 85.2567 97.3176 87.2532Z" fill="#9083D5" stroke="#9083D5" stroke-width="2"/>
</g>
<defs>
<filter id="filter0_d_869_3748" x="0.333008" y="0" width="218" height="218" filterUnits="userSpaceOnUse" color-interpolation-filters="sRGB">
<feFlood flood-opacity="0" result="BackgroundImageFix"/>
<feColorMatrix in="SourceAlpha" type="matrix" values="0 0 0 0 0 0 0 0 0 0 0 0 0 0 0 0 0 0 127 0" result="hardAlpha"/>
<feMorphology radius="11" operator="erode" in="SourceAlpha" result="effect1_dropShadow_869_3748"/>
<feOffset dy="17"/>
<feGaussianBlur stdDeviation="35"/>
<feColorMatrix type="matrix" values="0 0 0 0 0 0 0 0 0 0 0 0 0 0 0 0 0 0 0.1 0"/>
<feBlend mode="normal" in2="BackgroundImageFix" result="effect1_dropShadow_869_3748"/>
<feBlend mode="normal" in="SourceGraphic" in2="effect1_dropShadow_869_3748" result="shape"/>
</filter>
<clipPath id="clip0_869_3748">
<rect width="52.7042" height="55.4302" fill="white" transform="translate(80.7148 62.7861)"/>
</clipPath>
</defs>
</svg>
