<svg width="218" height="218" viewBox="0 0 218 218" fill="none" xmlns="http://www.w3.org/2000/svg">
<g filter="url(#filter0_d_466_7893)">
<rect x="59" y="42" width="100" height="100" rx="16" fill="white"/>
</g>
<g clip-path="url(#clip0_466_7893)">
<path d="M131.252 86.5455C130.085 85.5876 128.593 85.2544 127.157 85.6323L125.375 86.1009C125.065 84.6365 124.604 83.2269 124.003 81.8915L127.201 79.9495C127.939 79.5011 128.192 78.508 127.766 77.7312C127.34 76.9545 126.396 76.6881 125.657 77.1368L122.457 79.0799C121.658 77.8676 120.727 76.7433 119.676 75.7276L120.956 74.3353C121.984 73.2163 122.456 71.6906 122.251 70.1494C122.045 68.6079 121.192 67.2777 119.911 66.4996C118.629 65.7213 117.108 65.6097 115.736 66.1933C114.364 66.7768 113.343 67.9695 112.936 69.4659L112.435 71.3102C111.083 70.8643 109.693 70.5812 108.279 70.4619V66.5846C108.279 65.6878 107.588 64.9607 106.735 64.9607C105.882 64.9607 105.191 65.6878 105.191 66.5846V70.4619C103.776 70.5812 102.387 70.8644 101.035 71.3102L100.533 69.4659C100.126 67.9696 99.1059 66.7767 97.734 66.1933C96.3623 65.6097 94.8403 65.7216 93.5586 66.4996C92.2771 67.2778 91.4242 68.608 91.2188 70.1493C91.0133 71.6905 91.4854 73.2162 92.514 74.3352L93.7941 75.7275C92.7422 76.7433 91.812 77.8675 91.0128 79.0798L87.8128 77.1367C87.0742 76.6881 86.1298 76.9544 85.7036 77.7311C85.2772 78.5079 85.5302 79.5011 86.2687 79.9494L89.467 81.8914C88.8658 83.2268 88.4045 84.6364 88.0951 86.1008L86.3123 85.6322C84.8765 85.2543 83.3844 85.5876 82.218 86.5454C81.0518 87.5034 80.3828 88.9452 80.3828 90.5016C80.3828 92.058 81.0518 93.4998 82.2182 94.4577C83.3846 95.4156 84.8771 95.7485 86.3125 95.3709L88.0952 94.9022C88.4047 96.3667 88.866 97.7763 89.4672 99.1117L86.2688 101.054C85.5303 101.502 85.2773 102.495 85.7037 103.272C85.9896 103.793 86.5086 104.084 87.0423 104.084C87.3041 104.084 87.5697 104.014 87.8129 103.866L91.0129 101.923C91.812 103.136 92.7422 104.26 93.7941 105.276L92.5139 106.668C91.4853 107.787 91.0132 109.313 91.2188 110.854C91.4243 112.395 92.2772 113.725 93.5587 114.503C94.2977 114.952 95.1166 115.179 95.9406 115.179C96.5455 115.179 97.1533 115.057 97.7341 114.81C99.106 114.226 100.126 113.034 100.533 111.537L101.035 109.693C102.387 110.139 103.777 110.422 105.191 110.541V114.418C105.191 115.315 105.882 116.042 106.735 116.042C107.588 116.042 108.279 115.315 108.279 114.418V110.541C109.693 110.422 111.083 110.139 112.435 109.693L112.937 111.537C113.344 113.033 114.364 114.226 115.736 114.81C117.108 115.393 118.629 115.281 119.911 114.503C121.193 113.725 122.045 112.395 122.251 110.854C122.456 109.313 121.984 107.787 120.956 106.668L119.676 105.276C120.727 104.26 121.658 103.135 122.457 101.923L125.657 103.866C125.9 104.014 126.165 104.084 126.427 104.084C126.961 104.084 127.48 103.793 127.766 103.272C128.192 102.495 127.939 101.502 127.201 101.054L124.002 99.1117C124.604 97.7763 125.065 96.3667 125.374 94.9022L127.157 95.3709C128.593 95.7485 130.085 95.4154 131.251 94.4577C132.418 93.4998 133.087 92.058 133.087 90.5016C133.087 88.9452 132.418 87.5034 131.252 86.5455ZM129.351 91.8977C128.94 92.2357 128.413 92.3533 127.906 92.2201L124.517 91.3289C124.089 91.2164 123.637 91.3015 123.273 91.5623C122.909 91.8232 122.668 92.2353 122.611 92.6948C122.06 97.1482 119.881 101.115 116.475 103.866C116.126 104.148 115.908 104.573 115.876 105.034C115.843 105.496 116 105.95 116.306 106.283L118.736 108.926C119.099 109.321 119.265 109.859 119.193 110.403C119.12 110.947 118.819 111.416 118.367 111.691C117.915 111.966 117.378 112.005 116.893 111.799C116.409 111.593 116.049 111.172 115.906 110.644L114.949 107.127C114.828 106.681 114.532 106.312 114.135 106.11C113.738 105.909 113.279 105.896 112.872 106.073C110.918 106.926 108.853 107.359 106.735 107.359C104.617 107.359 102.552 106.926 100.598 106.073C100.191 105.896 99.7314 105.909 99.3348 106.11C98.9382 106.312 98.6421 106.681 98.5211 107.127L97.5644 110.644C97.4207 111.172 97.0607 111.593 96.5766 111.799C96.0925 112.005 95.5553 111.966 95.103 111.691C94.6507 111.416 94.3498 110.947 94.2773 110.403C94.2047 109.859 94.3713 109.321 94.7343 108.926L97.1645 106.283C97.4703 105.95 97.6266 105.496 97.5943 105.034C97.5619 104.573 97.3438 104.148 96.9948 103.866C93.5892 101.115 91.4102 97.1482 90.8591 92.6948C90.8023 92.2353 90.5615 91.8232 90.1975 91.5623C89.9387 91.3769 89.6353 91.2804 89.3279 91.2804C89.2028 91.2804 89.077 91.2963 88.9534 91.3289L85.5638 92.2201C85.057 92.3531 84.5304 92.2359 84.1188 91.8977C83.707 91.5596 83.4709 91.0508 83.4709 90.5016C83.4709 89.9524 83.707 89.4435 84.1186 89.1054C84.5303 88.7674 85.0568 88.6499 85.5636 88.783L88.9532 89.6742C89.3806 89.7869 89.8333 89.7017 90.1972 89.4408C90.5612 89.1799 90.802 88.7679 90.8588 88.3084C91.4099 83.8548 93.589 79.8877 96.9946 77.1375C97.3436 76.8556 97.5617 76.4306 97.5941 75.969C97.6265 75.5075 97.4702 75.0533 97.1642 74.7206L94.7343 72.0775C94.3712 71.6827 94.2046 71.1442 94.2772 70.6002C94.3497 70.0564 94.6506 69.587 95.1029 69.3123C95.5552 69.0376 96.0921 68.9982 96.5764 69.2042C97.0605 69.4101 97.4206 69.8311 97.5642 70.3591L98.5209 73.8766C98.6419 74.3219 98.9381 74.6915 99.3346 74.8928C99.7313 75.0939 100.191 75.1075 100.597 74.9299C102.551 74.0768 104.616 73.6443 106.735 73.6443C108.853 73.6443 110.918 74.0768 112.872 74.9299C113.279 75.1075 113.738 75.094 114.135 74.8928C114.532 74.6916 114.828 74.322 114.949 73.8766L115.905 70.3591C116.049 69.8311 116.409 69.4101 116.893 69.2042C117.377 68.9984 117.914 69.0377 118.367 69.3123C118.819 69.587 119.12 70.0564 119.193 70.6002C119.265 71.1441 119.098 71.6826 118.735 72.0775L116.305 74.7207C115.999 75.0534 115.843 75.5077 115.876 75.9691C115.908 76.4307 116.126 76.8557 116.475 77.1376C119.881 79.8877 122.06 83.8549 122.611 88.3085C122.668 88.768 122.908 89.18 123.272 89.4409C123.637 89.7018 124.089 89.7869 124.516 89.6743L127.906 88.7831C128.413 88.6501 128.939 88.7673 129.351 89.1055C129.763 89.4435 129.999 89.9524 129.999 90.5016C129.999 91.0508 129.763 91.5596 129.351 91.8977Z" fill="#9083D5"/>
<path d="M110.309 94.832C110.309 92.6499 111.986 90.9602 113.941 90.9602C115.896 90.9602 117.573 92.6499 117.573 94.832C117.573 97.0141 115.896 98.7038 113.941 98.7038C111.986 98.7038 110.309 97.0141 110.309 94.832ZM111.397 94.832C111.397 96.2316 112.49 97.4559 113.941 97.4559C115.391 97.4559 116.485 96.2316 116.485 94.832C116.485 93.4324 115.391 92.2081 113.941 92.2081C112.49 92.2081 111.397 93.4324 111.397 94.832Z" fill="#9083D5" stroke="#9083D5" stroke-width="2"/>
<path d="M95.8965 87.2535C95.8965 84.4744 98.0355 82.2991 100.558 82.2991C103.081 82.2991 105.22 84.4744 105.22 87.2535C105.22 90.0326 103.081 92.2079 100.558 92.2079C98.0355 92.2079 95.8965 90.0326 95.8965 87.2535ZM96.9846 87.2535C96.9846 89.2501 98.5399 90.96 100.558 90.96C102.576 90.96 104.132 89.2501 104.132 87.2535C104.132 85.2569 102.576 83.5469 100.558 83.5469C98.5399 83.5469 96.9846 85.2569 96.9846 87.2535Z" fill="#9083D5" stroke="#9083D5" stroke-width="2"/>
</g>
<defs>
<filter id="filter0_d_466_7893" x="0" y="0" width="218" height="218" filterUnits="userSpaceOnUse" color-interpolation-filters="sRGB">
<feFlood flood-opacity="0" result="BackgroundImageFix"/>
<feColorMatrix in="SourceAlpha" type="matrix" values="0 0 0 0 0 0 0 0 0 0 0 0 0 0 0 0 0 0 127 0" result="hardAlpha"/>
<feMorphology radius="11" operator="erode" in="SourceAlpha" result="effect1_dropShadow_466_7893"/>
<feOffset dy="17"/>
<feGaussianBlur stdDeviation="35"/>
<feColorMatrix type="matrix" values="0 0 0 0 0 0 0 0 0 0 0 0 0 0 0 0 0 0 0.1 0"/>
<feBlend mode="normal" in2="BackgroundImageFix" result="effect1_dropShadow_466_7893"/>
<feBlend mode="normal" in="SourceGraphic" in2="effect1_dropShadow_466_7893" result="shape"/>
</filter>
<clipPath id="clip0_466_7893">
<rect width="52.7042" height="55.4302" fill="white" transform="translate(80.3828 62.7864)"/>
</clipPath>
</defs>
</svg>
