<svg width="248" height="232" viewBox="0 0 248 232" fill="none" xmlns="http://www.w3.org/2000/svg">
<g filter="url(#filter0_d_385_4159)">
<path d="M59.5977 58.6709C59.5977 49.8343 66.7611 42.6709 75.5977 42.6709H172.196C181.032 42.6709 188.196 49.8343 188.196 58.6709V139.194C188.196 148.031 181.032 155.194 172.196 155.194H75.5977C66.7611 155.194 59.5977 148.031 59.5977 139.194V58.6709Z" fill="white"/>
<g clip-path="url(#clip0_385_4159)">
<path d="M155.503 80.5104L142.283 67.2648C141.559 66.5393 140.385 66.5393 139.66 67.2648C138.936 67.9908 138.936 69.1675 139.66 69.893L141.654 71.8905L130.506 83.0594L124.107 76.647C123.383 75.9215 122.208 75.9215 121.484 76.647C120.759 77.373 120.759 78.5497 121.484 79.2752L124.579 82.3762L106.453 100.537C105.402 101.59 104.823 102.991 104.823 104.479C104.823 105.104 104.926 105.712 105.122 106.286L101.199 110.216C99.5122 111.907 99.5122 114.658 101.199 116.349L102.546 117.698L92.2901 127.973C91.5661 128.699 91.5661 129.876 92.2901 130.601C92.6527 130.964 93.127 131.146 93.6019 131.146C94.0763 131.146 94.5511 130.964 94.9132 130.601L105.169 120.326L106.515 121.674C107.359 122.52 108.467 122.943 109.575 122.943C110.684 122.943 111.792 122.52 112.636 121.674L116.558 117.745C117.131 117.94 117.738 118.044 118.361 118.044C119.847 118.044 121.245 117.464 122.295 116.411L140.421 98.2499L143.516 101.351C143.878 101.714 144.353 101.896 144.827 101.896C145.302 101.896 145.777 101.714 146.139 101.351C146.863 100.625 146.863 99.4488 146.139 98.7228L139.739 92.3104L150.886 81.1415L152.88 83.1386C153.242 83.5013 153.716 83.6832 154.191 83.6832C154.666 83.6832 155.141 83.5018 155.503 83.1386C156.227 82.4126 156.227 81.2364 155.503 80.5104ZM110.013 119.046C109.855 119.204 109.671 119.228 109.576 119.228C109.48 119.228 109.296 119.204 109.139 119.046L103.823 113.721C103.581 113.479 103.581 113.086 103.823 112.844L107.345 109.316L113.534 115.518L110.013 119.046ZM119.672 113.783C118.949 114.507 117.773 114.508 117.05 113.783L109.076 105.794C108.725 105.443 108.533 104.976 108.533 104.479C108.533 103.983 108.725 103.517 109.076 103.166L113.982 98.2499L117.077 101.351C117.439 101.714 117.914 101.896 118.389 101.896C118.863 101.896 119.338 101.714 119.7 101.351C120.424 100.625 120.424 99.4488 119.7 98.7228L116.605 95.6218L120.592 91.6272L123.687 94.7282C124.049 95.0909 124.524 95.2728 124.998 95.2728C125.473 95.2728 125.948 95.0914 126.31 94.7282C127.034 94.0027 127.034 92.826 126.31 92.1L123.215 88.999L127.201 85.0044L137.798 95.6218L119.672 113.783ZM137.116 89.6822L133.13 85.6876L144.277 74.5187L148.263 78.5133L137.116 89.6822Z" fill="#9083D5"/>
</g>
</g>
<defs>
<filter id="filter0_d_385_4159" x="0.597656" y="0.670898" width="246.598" height="230.523" filterUnits="userSpaceOnUse" color-interpolation-filters="sRGB">
<feFlood flood-opacity="0" result="BackgroundImageFix"/>
<feColorMatrix in="SourceAlpha" type="matrix" values="0 0 0 0 0 0 0 0 0 0 0 0 0 0 0 0 0 0 127 0" result="hardAlpha"/>
<feMorphology radius="11" operator="erode" in="SourceAlpha" result="effect1_dropShadow_385_4159"/>
<feOffset dy="17"/>
<feGaussianBlur stdDeviation="35"/>
<feColorMatrix type="matrix" values="0 0 0 0 0 0 0 0 0 0 0 0 0 0 0 0 0 0 0.1 0"/>
<feBlend mode="normal" in2="BackgroundImageFix" result="effect1_dropShadow_385_4159"/>
<feBlend mode="normal" in="SourceGraphic" in2="effect1_dropShadow_385_4159" result="shape"/>
</filter>
<clipPath id="clip0_385_4159">
<rect width="64.2991" height="64.2991" fill="white" transform="translate(91.7471 66.7832)"/>
</clipPath>
</defs>
</svg>
