<svg width="219" height="218" viewBox="0 0 219 218" fill="none" xmlns="http://www.w3.org/2000/svg">
<g filter="url(#filter0_d_869_4490)">
<rect x="59.5" y="42" width="100" height="100" rx="16" fill="white"/>
</g>
<path d="M103.188 114.204H115.688C126.104 114.204 130.271 109.822 130.271 98.8665V85.72C130.271 74.7645 126.104 70.3823 115.688 70.3823H103.188C92.7712 70.3823 88.6045 74.7645 88.6045 85.72V98.8665C88.6045 109.822 92.7712 114.204 103.188 114.204Z" stroke="#9083D5" stroke-width="2" stroke-linecap="round" stroke-linejoin="round"/>
<path d="M88.6045 93.8267L101.104 93.7829C102.667 93.7829 104.417 95.0318 105 96.5655L107.375 102.876C107.917 104.3 108.771 104.3 109.313 102.876L114.084 90.1456C114.542 88.9186 115.396 88.8748 115.979 90.0361L118.146 94.3525C118.792 95.6453 120.459 96.697 121.834 96.697H130.292" stroke="#9083D5" stroke-width="2" stroke-linecap="round" stroke-linejoin="round"/>
<defs>
<filter id="filter0_d_869_4490" x="0.5" y="0" width="218" height="218" filterUnits="userSpaceOnUse" color-interpolation-filters="sRGB">
<feFlood flood-opacity="0" result="BackgroundImageFix"/>
<feColorMatrix in="SourceAlpha" type="matrix" values="0 0 0 0 0 0 0 0 0 0 0 0 0 0 0 0 0 0 127 0" result="hardAlpha"/>
<feMorphology radius="11" operator="erode" in="SourceAlpha" result="effect1_dropShadow_869_4490"/>
<feOffset dy="17"/>
<feGaussianBlur stdDeviation="35"/>
<feColorMatrix type="matrix" values="0 0 0 0 0 0 0 0 0 0 0 0 0 0 0 0 0 0 0.1 0"/>
<feBlend mode="normal" in2="BackgroundImageFix" result="effect1_dropShadow_869_4490"/>
<feBlend mode="normal" in="SourceGraphic" in2="effect1_dropShadow_869_4490" result="shape"/>
</filter>
</defs>
</svg>
