<svg width="248" height="232" viewBox="0 0 248 232" fill="none" xmlns="http://www.w3.org/2000/svg">
<g filter="url(#filter0_d_385_4087)">
<path d="M59.6641 58.9043C59.6641 50.0677 66.8275 42.9043 75.6641 42.9043H172.262C181.099 42.9043 188.262 50.0677 188.262 58.9043V139.428C188.262 148.264 181.099 155.428 172.262 155.428H75.6641C66.8275 155.428 59.6641 148.264 59.6641 139.428V58.9043Z" fill="white"/>
<g clip-path="url(#clip0_385_4087)">
<path d="M120.134 103.145C119.804 100.177 119.463 97.1102 119.463 94.1849C119.463 88.8485 119.463 74.6758 109.716 74.6758C98.7862 74.6758 91.8146 100.762 91.8146 114.386C91.7996 116.396 91.8874 126.602 95.233 129.975C96.0902 130.839 97.1382 131.298 98.2656 131.298C100.632 131.298 101.885 130.333 103.212 129.315C104.658 128.201 106.643 126.679 111.74 125.209C122.249 122.181 121.126 112.067 120.134 103.145ZM110.556 121.09C104.678 122.785 102.226 124.669 100.604 125.916C99.4764 126.784 99.1571 127.003 98.3297 127.014C97.1361 126.232 96.0602 120.166 96.103 114.403C96.103 98.8356 103.737 78.9622 109.718 78.9622C113.443 78.9622 115.179 83.7993 115.179 94.1872C115.179 97.3484 115.533 100.537 115.876 103.619C116.973 113.482 117.267 119.157 110.556 121.09Z" fill="#9083D5"/>
<path d="M155.111 114.412L155.111 114.403C155.111 107.711 153.393 97.8982 150.323 89.7769C148.788 85.7161 146.939 82.1414 144.845 79.6006C142.742 77.0492 140.512 75.6758 138.207 75.6758C136.046 75.6758 134.477 76.4487 133.292 77.67C132.08 78.9197 131.227 80.6855 130.643 82.7067C129.47 86.7598 129.464 91.4967 129.464 94.1826C129.464 97.1682 129.118 100.284 128.79 103.235L128.787 103.256L128.787 103.256C128.286 107.761 127.788 112.339 128.652 116.165C129.079 118.052 129.829 119.711 131.046 121.069C132.26 122.423 133.987 123.533 136.461 124.246L136.461 124.246C141.704 125.759 143.8 127.35 145.323 128.52C146.631 129.523 147.654 130.298 149.664 130.298C150.499 130.298 151.296 129.965 151.983 129.274L155.111 114.412ZM155.111 114.412C155.119 115.389 155.101 118.385 154.672 121.539M155.111 114.412L154.672 121.539M154.672 121.539C154.457 123.116 154.143 124.706 153.69 126.091M154.672 121.539L153.69 126.091M153.69 126.091C153.231 127.492 152.659 128.591 151.983 129.273L153.69 126.091ZM149.589 128.011L149.896 128.015L150.152 127.847C150.495 127.621 150.738 127.28 150.912 126.975C151.096 126.652 151.259 126.268 151.405 125.85C151.697 125.012 151.954 123.944 152.165 122.749C152.589 120.356 152.85 117.345 152.826 114.416C152.826 106.486 150.887 97.5017 148.194 90.4902C146.848 86.9849 145.294 83.9236 143.664 81.7185C142.849 80.6162 141.992 79.6955 141.103 79.0426C140.216 78.391 139.239 77.9642 138.209 77.9642C137.397 77.9642 136.378 78.1089 135.392 78.8766C134.428 79.6271 133.616 80.8804 132.989 82.8437L132.989 82.8441C131.868 86.3617 131.75 91.0643 131.75 94.1849C131.75 97.2835 131.404 100.418 131.06 103.508L131.06 103.508C130.517 108.392 130.139 112.454 130.808 115.539C131.151 117.116 131.776 118.494 132.827 119.614C133.877 120.733 135.289 121.528 137.094 122.049C142.787 123.692 145.135 125.494 146.693 126.69L146.715 126.707L146.716 126.708C147.254 127.121 147.696 127.458 148.121 127.674C148.613 127.924 149.059 128.005 149.589 128.011Z" fill="#9083D5" stroke="#9083D5" stroke-width="2"/>
<path d="M125.035 90.3714L125.035 90.3723C125.726 92.1894 126.531 93.2402 127.357 93.8207C128.214 94.4231 128.971 94.4289 129.298 94.4289C129.931 94.4289 130.442 94.9406 130.442 95.572C130.442 96.2034 129.931 96.7152 129.298 96.7152C127.947 96.7152 126.24 96.2812 124.734 94.4752L123.966 93.5536L123.198 94.4752C121.693 96.2814 119.986 96.7152 118.636 96.7152C118.006 96.7152 117.493 96.2028 117.493 95.572C117.493 94.9413 118.006 94.4289 118.636 94.4289C118.963 94.4289 119.719 94.4229 120.577 93.8202C121.402 93.2396 122.208 92.1886 122.899 90.3705L122.9 90.3692C123.067 89.9289 123.492 89.6348 123.968 89.6348C124.442 89.6348 124.867 89.9283 125.035 90.3714ZM129.298 93.4289C128.795 93.4289 127.267 93.4289 125.97 90.0171L121.965 90.0149C120.666 93.4289 119.138 93.4289 118.636 93.4289C117.453 93.4289 116.493 94.389 116.493 95.572C116.493 96.755 117.453 97.7152 118.636 97.7152C120.021 97.7152 121.722 97.3166 123.278 95.8498C123.251 95.8188 123.225 95.7874 123.198 95.7558L123.966 95.1155L124.734 95.7558C124.708 95.7874 124.682 95.8188 124.655 95.8498C126.211 97.3165 127.912 97.7152 129.298 97.7152C130.484 97.7152 131.442 96.7551 131.442 95.572C131.442 94.3889 130.484 93.4289 129.298 93.4289Z" fill="#9083D5" stroke="#9083D5" stroke-width="2"/>
<path d="M122.82 69.1773C122.82 68.5466 123.333 68.0342 123.964 68.0342C124.594 68.0342 125.107 68.5465 125.107 69.1773V91.1767C125.107 91.8076 124.594 92.3199 123.964 92.3199C123.333 92.3199 122.82 91.8074 122.82 91.1767V69.1773Z" fill="#9083D5" stroke="#9083D5" stroke-width="2"/>
</g>
</g>
<defs>
<filter id="filter0_d_385_4087" x="0.664062" y="0.904297" width="246.598" height="230.523" filterUnits="userSpaceOnUse" color-interpolation-filters="sRGB">
<feFlood flood-opacity="0" result="BackgroundImageFix"/>
<feColorMatrix in="SourceAlpha" type="matrix" values="0 0 0 0 0 0 0 0 0 0 0 0 0 0 0 0 0 0 127 0" result="hardAlpha"/>
<feMorphology radius="11" operator="erode" in="SourceAlpha" result="effect1_dropShadow_385_4087"/>
<feOffset dy="17"/>
<feGaussianBlur stdDeviation="35"/>
<feColorMatrix type="matrix" values="0 0 0 0 0 0 0 0 0 0 0 0 0 0 0 0 0 0 0.1 0"/>
<feBlend mode="normal" in2="BackgroundImageFix" result="effect1_dropShadow_385_4087"/>
<feBlend mode="normal" in="SourceGraphic" in2="effect1_dropShadow_385_4087" result="shape"/>
</filter>
<clipPath id="clip0_385_4087">
<rect width="64.2991" height="64.2991" fill="white" transform="translate(91.8135 67.0166)"/>
</clipPath>
</defs>
</svg>
