<svg width="219" height="218" viewBox="0 0 219 218" fill="none" xmlns="http://www.w3.org/2000/svg">
<g filter="url(#filter0_d_869_8268)">
<rect x="59.667" y="42" width="100" height="100" rx="16" fill="white"/>
</g>
<g clip-path="url(#clip0_869_8268)">
<path d="M107.13 94.9707C106.868 92.7548 106.598 90.4654 106.598 88.2816C106.598 84.2979 106.598 73.7178 98.8669 73.7178C90.1976 73.7178 84.6679 93.1916 84.6679 103.362C84.656 104.863 84.7256 112.481 87.3792 115C88.0592 115.644 88.8904 115.987 89.7846 115.987C91.6612 115.987 92.6557 115.267 93.7079 114.507C94.8553 113.675 96.4294 112.539 100.472 111.441C108.808 109.181 107.917 101.631 107.13 94.9707ZM99.5333 108.367C94.8705 109.632 92.9258 111.038 91.6391 111.97C90.745 112.618 90.4917 112.781 89.8355 112.789C88.8887 112.205 88.0353 107.677 88.0693 103.375C88.0693 91.7534 94.1242 76.9176 98.8686 76.9176C101.823 76.9176 103.2 80.5286 103.2 88.2832C103.2 90.6431 103.48 93.0237 103.752 95.3243C104.623 102.687 104.856 106.923 99.5333 108.367Z" fill="#9083D5"/>
<path d="M134.666 103.375H134.666C134.666 98.4196 133.311 91.1315 130.889 85.0997C129.678 82.0847 128.225 79.4459 126.589 77.5782C124.95 75.7056 123.229 74.7178 121.465 74.7178C119.788 74.7178 118.59 75.2809 117.694 76.1509C116.771 77.0454 116.114 78.3184 115.659 79.7993C114.744 82.7768 114.737 86.2693 114.737 88.2799C114.737 90.5261 114.461 92.8662 114.201 95.0633L114.198 95.0879L114.198 95.088C113.799 98.4659 113.414 101.826 114.085 104.621C114.414 105.99 114.989 107.183 115.918 108.16C116.847 109.135 118.183 109.949 120.122 110.475L120.122 110.475C124.304 111.611 125.987 112.809 127.211 113.694C128.239 114.436 129.012 114.987 130.552 114.987C131.174 114.987 131.761 114.754 132.266 114.276L134.666 103.375ZM134.666 103.375L134.666 103.384M134.666 103.375L134.666 103.384M134.666 103.384C134.672 104.107 134.658 106.326 134.32 108.659M134.666 103.384L134.32 108.659M134.32 108.659C134.152 109.826 133.906 110.993 133.555 112.003M134.32 108.659L133.555 112.003M133.555 112.003C133.198 113.028 132.763 113.804 132.266 114.276L133.555 112.003ZM130.491 113.787L130.782 113.79L131.029 113.637C131.343 113.443 131.56 113.153 131.708 112.908C131.866 112.648 132.002 112.344 132.122 112.021C132.361 111.376 132.568 110.561 132.738 109.66C133.077 107.854 133.286 105.587 133.267 103.383C133.267 97.4184 131.719 90.675 129.572 85.4132C128.498 82.7821 127.254 80.4726 125.942 78.8014C124.678 77.192 123.149 75.9191 121.466 75.9191C120.807 75.9191 119.957 76.029 119.128 76.6361C118.315 77.2325 117.644 78.2187 117.135 79.721L117.135 79.7215C116.229 82.3986 116.137 85.9554 116.137 88.2816C116.137 90.5743 115.865 92.8966 115.591 95.2068L115.591 95.2068C115.162 98.837 114.852 101.926 115.397 104.289C115.679 105.509 116.196 106.585 117.068 107.46C117.935 108.33 119.09 108.937 120.54 109.33C125.024 110.548 126.867 111.88 128.088 112.762L128.11 112.778L128.111 112.779L128.114 112.781C128.535 113.085 128.901 113.348 129.256 113.518C129.675 113.719 130.054 113.782 130.491 113.787Z" fill="#9083D5" stroke="#9083D5" stroke-width="2"/>
<path d="M110.831 85.5436L110.832 85.5445C111.394 86.9372 112.06 87.768 112.763 88.2328C113.49 88.7133 114.131 88.7171 114.399 88.7171C114.844 88.7171 115.099 89.0417 115.099 89.3169C115.099 89.5922 114.844 89.9168 114.399 89.9168C113.357 89.9168 112.06 89.6023 110.918 88.3131L110.17 87.4678L109.421 88.3131C108.279 89.6025 106.983 89.9168 105.942 89.9168C105.498 89.9168 105.242 89.5916 105.242 89.3169C105.242 89.0423 105.498 88.7171 105.942 88.7171C106.209 88.7171 106.85 88.7131 107.577 88.2325C108.279 87.7675 108.946 86.9366 109.509 85.5432L109.51 85.5419C109.596 85.3283 109.842 85.1382 110.171 85.1382C110.497 85.1382 110.744 85.3273 110.831 85.5436ZM114.399 87.7171C113.999 87.7171 112.787 87.7171 111.759 85.1701C111.509 84.5494 110.877 84.1382 110.171 84.1382C109.466 84.1382 108.832 84.5478 108.582 85.1685C107.552 87.7171 106.34 87.7171 105.942 87.7171C105.004 87.7171 104.242 88.4338 104.242 89.3169C104.242 90.2 105.004 90.9168 105.942 90.9168C106.989 90.9168 108.264 90.6463 109.45 89.672C109.441 89.6611 109.431 89.6501 109.421 89.6391L110.17 88.9761L110.918 89.6391C110.909 89.6501 110.899 89.6611 110.889 89.672C112.075 90.6462 113.35 90.9168 114.399 90.9168C115.339 90.9168 116.099 90.2001 116.099 89.3169C116.099 88.4337 115.339 87.7171 114.399 87.7171Z" fill="#9083D5" stroke="#9083D5" stroke-width="2"/>
<path d="M109.468 69.613C109.468 69.3385 109.724 69.0132 110.168 69.0132C110.612 69.0132 110.868 69.3384 110.868 69.613V86.0359C110.868 86.3106 110.612 86.6358 110.168 86.6358C109.724 86.6358 109.468 86.3105 109.468 86.0359V69.613Z" fill="#9083D5" stroke="#9083D5" stroke-width="2"/>
</g>
<defs>
<filter id="filter0_d_869_8268" x="0.666992" y="0" width="218" height="218" filterUnits="userSpaceOnUse" color-interpolation-filters="sRGB">
<feFlood flood-opacity="0" result="BackgroundImageFix"/>
<feColorMatrix in="SourceAlpha" type="matrix" values="0 0 0 0 0 0 0 0 0 0 0 0 0 0 0 0 0 0 127 0" result="hardAlpha"/>
<feMorphology radius="11" operator="erode" in="SourceAlpha" result="effect1_dropShadow_869_8268"/>
<feOffset dy="17"/>
<feGaussianBlur stdDeviation="35"/>
<feColorMatrix type="matrix" values="0 0 0 0 0 0 0 0 0 0 0 0 0 0 0 0 0 0 0.1 0"/>
<feBlend mode="normal" in2="BackgroundImageFix" result="effect1_dropShadow_869_8268"/>
<feBlend mode="normal" in="SourceGraphic" in2="effect1_dropShadow_869_8268" result="shape"/>
</filter>
<clipPath id="clip0_869_8268">
<rect width="51" height="48" fill="white" transform="translate(84.667 68)"/>
</clipPath>
</defs>
</svg>
