<svg width="247" height="232" viewBox="0 0 247 232" fill="none" xmlns="http://www.w3.org/2000/svg">
<g filter="url(#filter0_d_380_1042)">
<path d="M59.0654 58.9043C59.0654 50.0677 66.2289 42.9043 75.0654 42.9043H171.664C180.5 42.9043 187.664 50.0677 187.664 58.9043V139.428C187.664 148.264 180.5 155.428 171.664 155.428H75.0654C66.2289 155.428 59.0654 148.264 59.0654 139.428V58.9043Z" fill="white"/>
<g clip-path="url(#clip0_380_1042)">
<path d="M151.708 78.7736C149.995 73.4382 146.344 69.5225 141.691 68.0303C133.112 65.2792 126.058 68.8164 123.365 70.5098C120.671 68.8163 113.617 65.2792 105.038 68.0303C100.384 69.5228 96.7322 73.4401 95.0201 78.7775C92.7687 85.7962 94.2226 93.747 98.9097 100.046C100.947 102.785 102.325 105.804 103.005 109.02C103.306 110.449 103.569 112.021 103.784 113.693C104.431 118.713 105.384 122.743 106.617 125.669C108.094 129.175 109.999 131.068 112.279 131.296C112.409 131.309 112.537 131.316 112.665 131.316C114.909 131.315 116.785 129.301 118.244 125.32C119.323 122.376 120.174 118.432 120.639 114.214C120.899 111.855 121.508 109.945 122.399 108.691C122.718 108.242 123.181 108.193 123.365 108.193C123.549 108.193 124.011 108.242 124.33 108.691C125.222 109.945 125.83 111.855 126.09 114.214C126.556 118.432 127.406 122.376 128.485 125.32C129.945 129.301 131.82 131.316 134.065 131.316C134.192 131.316 134.321 131.309 134.45 131.296C136.731 131.068 138.636 129.175 140.112 125.669C141.345 122.743 142.298 118.713 142.945 113.693C143.161 112.021 143.423 110.449 143.725 109.021C144.404 105.807 145.784 102.785 147.826 100.038C152.509 93.7391 153.96 85.7898 151.708 78.7736ZM144.81 97.7957C142.442 100.981 140.84 104.497 140.048 108.244C139.725 109.77 139.446 111.441 139.218 113.213C137.901 123.432 135.446 127.376 134.1 127.554C133.817 127.454 132.85 126.524 131.811 123.449C130.93 120.843 130.225 117.417 129.826 113.802C129.491 110.766 128.673 108.314 127.394 106.514C126.469 105.212 124.963 104.435 123.365 104.435C121.766 104.435 120.26 105.212 119.335 106.515C118.056 108.315 117.238 110.766 116.903 113.802C116.504 117.417 115.799 120.843 114.918 123.449C113.879 126.524 112.912 127.454 112.629 127.554C111.283 127.377 108.828 123.432 107.511 113.213C107.283 111.442 107.004 109.77 106.681 108.244C105.889 104.493 104.288 100.98 101.924 97.8028C97.9601 92.4748 96.717 85.7918 98.5986 79.9256C99.9354 75.7578 102.701 72.7266 106.186 71.6092C109.864 70.4293 113.658 70.5049 117.461 71.8336C120.365 72.8486 122.188 74.2525 122.201 74.263L123.362 75.1704L124.523 74.2665C124.541 74.2525 126.364 72.8486 129.268 71.8336C133.071 70.5048 136.865 70.4293 140.544 71.6092H140.544C144.027 72.7262 146.792 75.7563 148.13 79.9223C150.012 85.7862 148.771 92.4679 144.81 97.7957Z" fill="#9083D5"/>
</g>
</g>
<defs>
<filter id="filter0_d_380_1042" x="0.0654297" y="0.904297" width="246.598" height="230.523" filterUnits="userSpaceOnUse" color-interpolation-filters="sRGB">
<feFlood flood-opacity="0" result="BackgroundImageFix"/>
<feColorMatrix in="SourceAlpha" type="matrix" values="0 0 0 0 0 0 0 0 0 0 0 0 0 0 0 0 0 0 127 0" result="hardAlpha"/>
<feMorphology radius="11" operator="erode" in="SourceAlpha" result="effect1_dropShadow_380_1042"/>
<feOffset dy="17"/>
<feGaussianBlur stdDeviation="35"/>
<feColorMatrix type="matrix" values="0 0 0 0 0 0 0 0 0 0 0 0 0 0 0 0 0 0 0.1 0"/>
<feBlend mode="normal" in2="BackgroundImageFix" result="effect1_dropShadow_380_1042"/>
<feBlend mode="normal" in="SourceGraphic" in2="effect1_dropShadow_380_1042" result="shape"/>
</filter>
<clipPath id="clip0_380_1042">
<rect width="64.2991" height="64.2991" fill="white" transform="translate(91.2148 67.0166)"/>
</clipPath>
</defs>
</svg>
