<svg width="248" height="232" viewBox="0 0 248 232" fill="none" xmlns="http://www.w3.org/2000/svg">
<g filter="url(#filter0_d_380_1058)">
<path d="M59.9346 58.9043C59.9346 50.0677 67.098 42.9043 75.9346 42.9043H172.533C181.369 42.9043 188.533 50.0677 188.533 58.9043V139.428C188.533 148.264 181.369 155.428 172.533 155.428H75.9346C67.098 155.428 59.9346 148.264 59.9346 139.428V58.9043Z" fill="white"/>
<g clip-path="url(#clip0_380_1058)">
<path d="M154.144 94.5774C152.721 93.4662 150.9 93.0798 149.149 93.5181L146.974 94.0617C146.596 92.363 146.034 90.7279 145.3 89.1788L149.202 86.9261C150.103 86.4059 150.412 85.2539 149.892 84.3528C149.371 83.4519 148.22 83.1428 147.318 83.6634L143.414 85.9174C142.439 84.5111 141.304 83.2069 140.021 82.0287L141.583 80.4136C142.838 79.1156 143.414 77.3457 143.163 75.5579C142.912 73.7699 141.872 72.2268 140.308 71.3242C138.745 70.4214 136.888 70.2919 135.214 70.9688C133.541 71.6457 132.296 73.0293 131.799 74.7651L131.187 76.9044C129.538 76.3873 127.843 76.0589 126.117 75.9205V71.4228C126.117 70.3825 125.274 69.5391 124.233 69.5391C123.193 69.5391 122.35 70.3825 122.35 71.4228V75.9205C120.624 76.0589 118.929 76.3874 117.279 76.9044L116.667 74.7651C116.171 73.0294 114.926 71.6456 113.252 70.9688C111.579 70.2919 109.722 70.4217 108.158 71.3242C106.595 72.2269 105.555 73.77 105.304 75.5578C105.053 77.3456 105.629 79.1155 106.884 80.4135L108.446 82.0285C107.162 83.2069 106.028 84.5109 105.053 85.9172L101.149 83.6633C100.247 83.1428 99.0953 83.4518 98.5753 84.3527C98.0551 85.2538 98.3638 86.4059 99.2648 86.9259L103.167 89.1787C102.433 90.7277 101.871 92.3628 101.493 94.0616L99.318 93.518C97.5662 93.0797 95.7459 93.4662 94.3229 94.5773C92.9002 95.6886 92.084 97.3611 92.084 99.1665C92.084 100.972 92.9002 102.644 94.3231 103.756C95.7461 104.867 97.567 105.253 99.3183 104.815L101.493 104.271C101.871 105.97 102.433 107.605 103.167 109.154L99.2649 111.407C98.3639 111.927 98.0553 113.079 98.5754 113.98C98.9243 114.584 99.5575 114.922 100.209 114.922C100.528 114.922 100.852 114.841 101.149 114.67L105.053 112.416C106.028 113.822 107.162 115.126 108.446 116.304L106.884 117.919C105.629 119.217 105.053 120.987 105.304 122.775C105.555 124.563 106.595 126.106 108.159 127.009C109.06 127.529 110.059 127.793 111.065 127.793C111.802 127.793 112.544 127.65 113.253 127.364C114.926 126.687 116.171 125.304 116.667 123.568L117.28 121.428C118.929 121.946 120.624 122.274 122.35 122.412V126.91C122.35 127.95 123.193 128.794 124.234 128.794C125.274 128.794 126.117 127.95 126.117 126.91V122.412C127.843 122.274 129.538 121.945 131.187 121.428L131.8 123.568C132.296 125.303 133.541 126.687 135.214 127.364C136.888 128.041 138.745 127.911 140.308 127.009C141.872 126.106 142.912 124.563 143.163 122.775C143.414 120.987 142.838 119.217 141.583 117.919L140.021 116.304C141.304 115.126 142.439 113.822 143.414 112.416L147.318 114.67C147.615 114.841 147.939 114.922 148.258 114.922C148.909 114.922 149.543 114.584 149.891 113.98C150.412 113.079 150.103 111.927 149.202 111.407L145.3 109.154C146.033 107.605 146.596 105.97 146.974 104.271L149.149 104.815C150.9 105.253 152.721 104.866 154.144 103.756C155.567 102.644 156.383 100.972 156.383 99.1665C156.383 97.3611 155.567 95.6886 154.144 94.5774ZM151.825 100.786C151.323 101.178 150.681 101.314 150.063 101.16L145.927 100.126C145.406 99.9957 144.854 100.094 144.409 100.397C143.965 100.7 143.672 101.178 143.602 101.711C142.93 106.877 140.272 111.479 136.117 114.669C135.691 114.996 135.425 115.489 135.385 116.024C135.346 116.56 135.537 117.086 135.91 117.472L138.874 120.539C139.317 120.997 139.521 121.621 139.432 122.252C139.344 122.883 138.976 123.428 138.425 123.746C137.873 124.065 137.218 124.11 136.627 123.872C136.036 123.633 135.597 123.144 135.422 122.532L134.255 118.452C134.107 117.935 133.746 117.506 133.262 117.273C132.778 117.039 132.218 117.024 131.721 117.23C129.337 118.219 126.818 118.721 124.234 118.721C121.649 118.721 119.13 118.219 116.746 117.23C116.25 117.024 115.689 117.039 115.205 117.273C114.722 117.506 114.36 117.935 114.213 118.452L113.045 122.532C112.87 123.144 112.431 123.633 111.84 123.872C111.25 124.111 110.594 124.065 110.043 123.746C109.491 123.428 109.124 122.883 109.035 122.252C108.947 121.621 109.15 120.997 109.593 120.539L112.558 117.472C112.931 117.086 113.121 116.56 113.082 116.024C113.042 115.489 112.776 114.996 112.351 114.669C108.196 111.479 105.537 106.877 104.865 101.711C104.796 101.178 104.502 100.7 104.058 100.397C103.742 100.182 103.372 100.07 102.997 100.07C102.844 100.07 102.691 100.088 102.54 100.126L98.4048 101.16C97.7865 101.314 97.144 101.178 96.6419 100.786C96.1395 100.394 95.8515 99.8036 95.8515 99.1665C95.8515 98.5294 96.1395 97.9392 96.6417 97.547C97.1439 97.1549 97.7863 97.0185 98.4045 97.173L102.54 98.2068C103.061 98.3375 103.614 98.2387 104.058 97.936C104.502 97.6334 104.795 97.1554 104.865 96.6224C105.537 91.4563 108.196 86.8543 112.35 83.6641C112.776 83.3371 113.042 82.8442 113.082 82.3087C113.121 81.7733 112.931 81.2465 112.557 80.8606L109.593 77.7946C109.15 77.3366 108.947 76.7119 109.035 76.0809C109.124 75.4501 109.491 74.9055 110.043 74.5869C110.594 74.2683 111.249 74.2226 111.84 74.4616C112.431 74.7003 112.87 75.1887 113.045 75.8012L114.212 79.8815C114.36 80.3981 114.721 80.8268 115.205 81.0603C115.689 81.2936 116.25 81.3093 116.746 81.1033C119.13 80.1137 121.649 79.612 124.233 79.612C126.818 79.612 129.337 80.1137 131.721 81.1033C132.217 81.3093 132.778 81.2937 133.262 81.0603C133.746 80.8269 134.107 80.3982 134.254 79.8815L135.422 75.8012C135.597 75.1887 136.036 74.7003 136.627 74.4616C137.217 74.2228 137.873 74.2684 138.424 74.5869C138.976 74.9055 139.343 75.4501 139.432 76.0809C139.52 76.7118 139.317 77.3365 138.874 77.7946L135.91 80.8607C135.536 81.2466 135.346 81.7736 135.385 82.3088C135.425 82.8443 135.691 83.3372 136.117 83.6643C140.271 86.8543 142.93 91.4564 143.602 96.6225C143.672 97.1555 143.965 97.6335 144.409 97.9361C144.854 98.2388 145.406 98.3375 145.927 98.2069L150.062 97.1731C150.68 97.0188 151.323 97.1548 151.825 97.5471C152.328 97.9392 152.616 98.5294 152.616 99.1665C152.616 99.8036 152.328 100.394 151.825 100.786Z" fill="#9083D5"/>
<path d="M128.373 104.189C128.373 101.626 130.46 99.5381 133.024 99.5381C135.588 99.5381 137.676 101.626 137.676 104.189C137.676 106.753 135.588 108.841 133.024 108.841C130.46 108.841 128.373 106.753 128.373 104.189ZM130.141 104.189C130.141 105.78 131.433 107.073 133.024 107.073C134.615 107.073 135.908 105.78 135.908 104.189C135.908 102.598 134.615 101.306 133.024 101.306C131.433 101.306 130.141 102.598 130.141 104.189Z" fill="#9083D5" stroke="#9083D5" stroke-width="2"/>
<path d="M110.791 95.3983C110.791 92.142 113.442 89.4912 116.698 89.4912C119.954 89.4912 122.605 92.142 122.605 95.3983C122.605 98.6546 119.954 101.305 116.698 101.305C113.442 101.305 110.791 98.6546 110.791 95.3983ZM112.559 95.3983C112.559 97.6818 114.415 99.5379 116.698 99.5379C118.982 99.5379 120.838 97.6818 120.838 95.3983C120.838 93.1149 118.982 91.2587 116.698 91.2587C114.415 91.2587 112.559 93.1149 112.559 95.3983Z" fill="#9083D5" stroke="#9083D5" stroke-width="2"/>
</g>
</g>
<defs>
<filter id="filter0_d_380_1058" x="0.93457" y="0.904297" width="246.598" height="230.523" filterUnits="userSpaceOnUse" color-interpolation-filters="sRGB">
<feFlood flood-opacity="0" result="BackgroundImageFix"/>
<feColorMatrix in="SourceAlpha" type="matrix" values="0 0 0 0 0 0 0 0 0 0 0 0 0 0 0 0 0 0 127 0" result="hardAlpha"/>
<feMorphology radius="11" operator="erode" in="SourceAlpha" result="effect1_dropShadow_380_1058"/>
<feOffset dy="17"/>
<feGaussianBlur stdDeviation="35"/>
<feColorMatrix type="matrix" values="0 0 0 0 0 0 0 0 0 0 0 0 0 0 0 0 0 0 0.1 0"/>
<feBlend mode="normal" in2="BackgroundImageFix" result="effect1_dropShadow_380_1058"/>
<feBlend mode="normal" in="SourceGraphic" in2="effect1_dropShadow_380_1058" result="shape"/>
</filter>
<clipPath id="clip0_380_1058">
<rect width="64.2991" height="64.2991" fill="white" transform="translate(92.084 67.0166)"/>
</clipPath>
</defs>
</svg>
