<svg width="1614" height="839" viewBox="0 0 1614 839" fill="none" xmlns="http://www.w3.org/2000/svg">
<g opacity="0.104143">
<ellipse cx="1441.5" cy="623.17" rx="81" ry="8" fill="#B3E5FC"/>
<path fill-rule="evenodd" clip-rule="evenodd" d="M1344.33 541.791C1305.67 526.133 1288.95 508.91 1278.5 503.17C1309.32 561.103 1392.4 637.302 1423.22 609.118C1431.58 601.811 1398.15 563.713 1344.33 541.791Z" fill="#9083D5"/>
<path fill-rule="evenodd" clip-rule="evenodd" d="M1425.52 609.925C1426.04 614.11 1483.56 609.925 1502.38 562.854C1517.54 526.244 1529.57 521.013 1539.5 513.17C1464.73 524.676 1424.47 599.464 1425.52 609.925Z" fill="#B3E5FC"/>
<path fill-rule="evenodd" clip-rule="evenodd" d="M1562.26 365.45C1560.24 364.774 1557.55 365.45 1555.53 366.126C1535.35 372.874 1515.85 395.141 1521.23 418.76C1517.87 426.181 1515.85 433.605 1513.83 442.376C1513.83 435.628 1513.16 427.53 1507.78 422.131C1501.05 415.383 1496.34 420.106 1496.34 426.855C1496.34 433.603 1499.71 434.952 1504.41 440.351C1508.45 444.401 1510.47 449.124 1512.49 450.473C1511.81 453.172 1511.81 455.872 1511.14 458.571C1510.47 462.621 1509.8 466.668 1509.12 470.718C1508.45 468.693 1508.45 466.668 1508.45 465.995C1506.43 457.897 1504.41 448.451 1497.69 441.027C1490.96 434.279 1482.22 434.954 1481.54 443.052C1480.87 449.8 1490.29 453.847 1496.34 458.571C1503.07 463.97 1505.76 468.693 1509.12 472.74C1507.78 479.489 1506.43 486.237 1505.09 492.985C1504.41 484.888 1501.05 475.441 1497.69 470.042C1490.96 460.596 1482.89 467.344 1481.54 474.092C1480.2 481.514 1486.93 486.913 1492.31 492.312C1496.34 496.362 1500.38 501.758 1502.4 504.459C1501.72 507.833 1500.38 511.207 1499.71 514.582C1499.03 517.28 1498.36 519.981 1497.69 522.679C1496.34 515.931 1492.98 509.182 1488.94 504.459C1486.25 501.761 1482.21 495.686 1478.18 496.362C1472.8 496.362 1472.8 503.11 1474.14 507.157C1477.51 516.604 1490.29 524.028 1494.99 532.125C1492.98 538.874 1490.96 544.946 1488.27 551.694C1488.27 544.273 1484.9 535.499 1482.89 530.776C1480.87 526.726 1476.83 522.003 1472.12 521.33C1466.74 520.654 1464.73 526.053 1466.07 530.776C1467.42 535.499 1470.78 540.223 1474.14 544.273C1477.51 548.996 1480.87 555.744 1484.9 559.792C1483.56 562.49 1482.21 565.864 1481.54 568.565C1481.54 569.241 1480.87 569.914 1480.87 569.914C1480.19 567.889 1479.52 565.864 1479.52 564.515C1478.18 559.792 1476.16 555.068 1471.45 552.367C1466.74 549.667 1460.69 548.993 1459.34 552.367C1458 555.066 1460.02 559.789 1462.71 563.163C1465.4 566.537 1469.43 568.562 1472.8 571.936C1474.81 573.961 1476.16 575.986 1477.5 578.009C1474.14 584.757 1470.78 590.829 1467.41 596.902C1466.07 591.503 1462.03 582.732 1460.69 580.707C1458.67 577.333 1455.3 573.959 1451.27 572.61C1447.23 571.26 1443.2 571.934 1441.85 574.635C1440.51 578.009 1443.2 582.056 1446.56 584.757C1448.58 586.782 1460.69 598.927 1464.72 600.952C1461.36 607.024 1458 613.099 1454.63 619.171C1453.29 621.196 1457.32 624.57 1458.67 622.545C1464.72 615.797 1469.43 608.376 1474.14 600.278C1476.83 600.954 1480.19 599.602 1482.89 600.278C1487.59 601.627 1492.98 603.652 1497.68 605.002C1502.39 605.677 1507.77 605.002 1509.12 600.278C1509.12 598.929 1509.12 597.58 1508.45 596.228C1506.43 592.178 1501.05 590.156 1497.01 590.156C1490.28 589.48 1482.89 590.832 1476.83 593.53C1479.52 588.131 1482.21 582.734 1484.23 578.011C1484.9 578.011 1485.57 577.335 1485.57 577.335C1488.26 575.986 1490.96 574.637 1494.32 574.637C1497.01 574.637 1499.7 575.313 1502.39 575.986C1506.43 576.662 1509.79 577.335 1513.15 577.335C1517.19 577.335 1521.22 576.66 1523.24 573.961C1525.26 571.263 1525.26 566.54 1521.9 563.839C1519.88 561.814 1516.52 561.141 1513.83 561.141C1505.75 560.465 1498.36 563.166 1492.97 567.213C1490.28 569.238 1488.27 571.263 1486.25 573.285C1488.94 566.537 1491.63 559.789 1494.32 552.367C1497.01 551.692 1500.37 551.018 1503.74 551.018C1508.44 551.018 1512.48 551.018 1517.19 551.694C1521.23 551.694 1525.93 551.694 1529.3 551.018C1535.35 548.993 1539.39 544.27 1539.39 538.871C1539.39 536.846 1539.39 533.472 1537.37 532.123C1534.68 530.098 1531.32 529.425 1528.62 530.098C1519.88 530.774 1512.48 533.472 1505.75 537.519C1503.74 538.868 1500.37 541.569 1497.01 544.268C1499.03 537.519 1501.05 531.447 1503.06 524.699C1509.11 520.649 1515.84 517.277 1524.59 515.926C1529.3 515.25 1534.68 515.25 1539.39 514.576C1544.09 513.901 1548.8 512.551 1551.49 509.177C1553.51 506.479 1554.18 501.756 1550.82 499.055C1550.15 498.379 1548.8 497.706 1547.46 497.03C1538.71 492.98 1530.64 496.354 1524.59 501.08C1518.53 505.803 1509.79 512.551 1505.08 519.973C1507.1 511.2 1509.12 503.102 1511.13 494.332C1515.17 491.633 1521.22 490.958 1525.93 490.282C1534.68 488.933 1544.09 488.933 1552.17 486.232C1557.55 484.207 1562.26 481.509 1563.6 476.785C1563.6 476.11 1564.27 475.436 1563.6 474.087C1562.93 472.738 1560.91 471.389 1559.56 470.713C1555.53 468.688 1550.82 468.688 1546.78 469.364C1536.69 470.713 1527.95 475.436 1520.55 481.511C1517.19 484.885 1513.82 488.259 1511.13 491.633C1513.15 483.536 1514.5 474.763 1515.84 465.992C1515.84 465.316 1515.84 464.643 1515.84 463.967C1521.89 463.967 1527.95 462.618 1534 462.618C1540.06 461.942 1546.11 461.269 1549.47 457.219C1550.15 455.87 1550.82 453.845 1550.82 452.496C1550.14 449.122 1546.78 446.423 1543.42 445.074C1540.06 443.725 1536.69 444.398 1534 445.074C1529.97 445.75 1523.24 449.798 1517.86 453.847C1518.53 449.124 1519.2 443.725 1519.88 439.002C1528.62 436.977 1538.04 438.326 1546.11 435.628C1552.84 433.603 1557.55 429.555 1559.57 423.481C1560.24 422.131 1560.24 419.431 1558.89 418.081C1557.55 416.732 1555.53 416.056 1554.18 416.056C1545.44 415.381 1537.37 418.081 1531.31 422.129C1529.3 423.478 1523.24 427.528 1520.55 431.575C1522.57 423.478 1525.26 416.056 1529.97 409.308C1533.33 405.934 1536.7 402.56 1540.73 400.535C1546.11 397.837 1551.49 395.136 1556.2 391.762C1560.91 388.388 1564.95 383.664 1566.29 378.265C1568.99 373.547 1566.97 367.475 1562.26 365.45Z" fill="#F8BBD0"/>
<path fill-rule="evenodd" clip-rule="evenodd" d="M1414.24 501.64C1412.66 487.977 1387.4 439.104 1379.5 430.17C1393.19 475.891 1373.71 468.007 1384.24 545.26C1387.4 568.383 1403.71 605.17 1417.4 605.17C1430.03 605.17 1430.56 588.353 1432.66 582.573C1437.4 566.806 1432.14 463.28 1426.35 453.82C1417.93 472.737 1415.29 498.486 1414.24 501.64Z" fill="#4CAF50"/>
<path fill-rule="evenodd" clip-rule="evenodd" d="M1453.49 486.17C1448.83 492.967 1446.76 501.332 1442.1 508.129C1438.48 513.357 1439 520.676 1435.9 525.905C1433.31 531.655 1428.13 534.269 1427.62 542.112C1427.62 545.771 1428.65 548.909 1428.14 552.045C1427.62 556.228 1426.07 559.888 1426.07 564.592C1426.07 567.73 1427.1 570.866 1427.1 573.48C1427.1 581.845 1414.16 595.439 1424.51 602.758C1423.99 609.556 1425.03 612.17 1428.65 612.17C1436.42 612.17 1435.9 604.327 1437.45 600.146C1439 594.918 1444.69 591.782 1445.21 584.984C1445.73 581.325 1443.66 577.142 1443.66 574.006C1444.18 571.392 1446.25 570.346 1447.28 568.256C1450.39 563.027 1450.9 556.754 1450.39 551.004C1450.39 547.344 1447.28 542.116 1447.8 538.98C1448.83 532.706 1454.53 531.137 1452.97 522.773C1452.46 520.159 1450.39 517.023 1450.39 514.409C1450.39 511.794 1452.46 509.704 1452.97 507.611C1456.08 500.286 1453.49 492.967 1453.49 486.17V486.17Z" fill="#01579B"/>
<path fill-rule="evenodd" clip-rule="evenodd" d="M1428.27 567.891C1421.42 570.523 1415.62 580.526 1414.04 590.003C1412.46 585.265 1410.35 581.053 1408.77 576.316C1411.94 569.998 1420.37 567.366 1423 559.468C1425.64 551.046 1417.73 546.833 1411.94 553.678C1409.3 556.838 1407.72 564.733 1407.19 570.525C1406.14 567.366 1404.56 562.628 1403.5 559.47C1402.45 556.838 1401.4 553.68 1400.34 551.048C1404.56 545.258 1416.15 540.518 1413.52 530.516C1411.41 523.671 1403.5 522.093 1400.34 529.463C1398.76 533.148 1397.71 538.94 1397.71 544.203C1395.6 538.938 1393.49 533.673 1390.85 528.936C1395.07 521.566 1409.3 516.828 1408.24 506.824C1407.19 498.401 1397.18 501.033 1393.49 506.824C1389.8 512.614 1389.8 519.986 1389.8 527.356C1387.69 523.671 1386.11 519.986 1384 516.301C1386.64 509.456 1394.54 502.613 1393.49 494.189C1391.91 485.766 1382.42 480.501 1378.74 491.029C1376.63 496.819 1377.68 503.137 1379.79 509.454C1377.15 505.769 1374.52 501.557 1371.88 497.872C1371.88 495.239 1371.88 491.554 1372.94 487.869C1373.99 483.657 1375.57 478.919 1373.47 475.234C1369.78 468.39 1365.56 474.182 1365.56 479.972C1365.03 484.184 1366.61 488.395 1368.19 493.134C1365.03 488.922 1359.76 483.132 1356.6 479.447C1356.07 471.024 1368.19 448.912 1354.49 453.65C1348.17 455.755 1350.8 469.444 1353.96 476.814C1351.86 474.709 1347.11 469.97 1346.59 469.97C1346.06 463.125 1348.69 439.962 1339.21 442.595C1331.83 444.7 1337.1 456.809 1340.26 462.599C1340.79 463.127 1341.32 464.179 1341.84 465.759C1338.68 462.599 1334.99 459.969 1331.83 457.337C1332.36 454.704 1332.89 451.019 1332.36 447.334C1332.36 444.702 1330.25 434.172 1325.51 440.489C1323.93 442.595 1325.51 449.967 1328.14 454.704C1325.51 452.599 1322.87 451.019 1320.24 449.439C1303.37 434.699 1301.79 407.322 1288.62 415.747C1272.8 425.749 1283.87 437.332 1290.2 441.017C1295.47 444.176 1305.48 447.861 1316.02 448.914C1318.66 451.019 1330.25 459.969 1331.31 461.549C1320.76 456.284 1300.21 445.754 1298.63 456.811C1297.05 466.814 1323.4 462.601 1333.41 463.656C1337.63 467.341 1347.64 477.344 1348.7 478.396C1343.96 476.291 1339.21 472.079 1333.94 471.551C1329.2 471.024 1320.24 473.131 1322.35 478.396C1325.51 486.293 1337.1 482.081 1343.43 481.556C1347.64 481.029 1350.28 482.083 1351.33 481.029C1356.08 486.293 1360.82 491.558 1365.04 497.348C1357.66 491.558 1338.16 480.501 1336.05 492.084C1333.41 506.824 1356.08 497.348 1366.09 498.928C1370.31 504.718 1374.52 511.036 1378.21 516.828C1372.94 512.09 1368.2 506.826 1360.82 504.193C1353.97 502.088 1344.48 503.666 1348.7 513.67C1351.86 521.04 1365.04 516.83 1372.41 517.883C1375.58 518.41 1378.21 519.462 1380.32 519.988C1383.48 525.778 1386.64 532.095 1389.28 538.413C1375.05 533.675 1356.6 511.563 1352.39 526.831C1348.7 540.518 1374.52 532.095 1390.33 540.518C1392.97 546.308 1395.07 552.1 1397.18 557.89C1394.02 553.678 1389.81 550.52 1385.59 547.361C1382.43 544.728 1369.78 539.463 1368.72 547.888C1367.67 556.311 1382.95 556.838 1387.7 557.365C1392.44 557.892 1395.6 559.47 1398.76 562.103C1399.29 563.155 1403.51 576.843 1405.62 582.635C1398.76 574.212 1362.4 548.415 1361.87 571.58C1361.35 586.32 1389.28 577.897 1397.18 579.477C1402.45 580.53 1405.09 582.637 1406.67 585.267C1407.73 588.427 1409.31 591.585 1410.36 594.745C1401.4 587.9 1381.37 576.32 1380.32 592.112C1378.74 610.537 1398.77 597.377 1403.51 597.902C1407.73 598.43 1412.47 597.902 1414.05 602.64C1415.63 606.325 1417.74 610.01 1420.38 613.17C1421.96 615.802 1425.65 612.642 1424.59 610.537C1421.96 605.8 1419.32 600.535 1417.21 595.27C1421.96 588.952 1435.13 583.162 1437.77 578.423C1440.4 570.523 1435.65 564.733 1428.27 567.891Z" fill="#F8BBD0"/>
<path fill-rule="evenodd" clip-rule="evenodd" d="M1545.17 531.713C1470.07 541.865 1465.34 606.155 1468.04 610.217C1499.17 614.279 1531.64 606.833 1576.29 558.785C1599.97 533.069 1612.82 497.201 1613.5 495.17C1601.32 510.056 1570.2 528.329 1545.17 531.713Z" fill="#9083D5"/>
</g>
<ellipse cx="420" cy="419.67" rx="419" ry="418.5" stroke="#B3E5FC"/>
<circle opacity="0.196894" cx="420" cy="419.67" r="345.5" fill="url(#paint0_linear_357_6321)"/>
<defs>
<linearGradient id="paint0_linear_357_6321" x1="-101.773" y1="400.727" x2="308.425" y2="940.549" gradientUnits="userSpaceOnUse">
<stop stop-color="#C8E6C9"/>
<stop offset="1" stop-color="#B3E5FC"/>
</linearGradient>
</defs>
</svg>
