<svg width="1614" height="839" viewBox="0 0 1614 839" fill="none" xmlns="http://www.w3.org/2000/svg">
<g opacity="0.104143">
<ellipse cx="1441.5" cy="622.795" rx="81" ry="8" fill="#B3E5FC"/>
<path fill-rule="evenodd" clip-rule="evenodd" d="M1344.33 541.416C1305.67 525.758 1288.95 508.535 1278.5 502.795C1309.32 560.728 1392.4 636.927 1423.22 608.743C1431.58 601.436 1398.15 563.338 1344.33 541.416Z" fill="#9083D5"/>
<path fill-rule="evenodd" clip-rule="evenodd" d="M1425.52 609.55C1426.04 613.735 1483.56 609.55 1502.38 562.479C1517.54 525.869 1529.57 520.638 1539.5 512.795C1464.73 524.301 1424.47 599.089 1425.52 609.55Z" fill="#B3E5FC"/>
<path fill-rule="evenodd" clip-rule="evenodd" d="M1562.26 365.075C1560.24 364.399 1557.55 365.075 1555.53 365.751C1535.35 372.499 1515.85 394.766 1521.23 418.385C1517.87 425.806 1515.85 433.23 1513.83 442.001C1513.83 435.253 1513.16 427.155 1507.78 421.756C1501.05 415.008 1496.34 419.731 1496.34 426.48C1496.34 433.228 1499.71 434.577 1504.41 439.976C1508.45 444.026 1510.47 448.749 1512.49 450.098C1511.81 452.797 1511.81 455.497 1511.14 458.196C1510.47 462.246 1509.8 466.293 1509.12 470.343C1508.45 468.318 1508.45 466.293 1508.45 465.62C1506.43 457.522 1504.41 448.076 1497.69 440.652C1490.96 433.904 1482.22 434.579 1481.54 442.677C1480.87 449.425 1490.29 453.472 1496.34 458.196C1503.07 463.595 1505.76 468.318 1509.12 472.365C1507.78 479.114 1506.43 485.862 1505.09 492.61C1504.41 484.513 1501.05 475.066 1497.69 469.667C1490.96 460.221 1482.89 466.969 1481.54 473.717C1480.2 481.139 1486.93 486.538 1492.31 491.937C1496.34 495.987 1500.38 501.383 1502.4 504.084C1501.72 507.458 1500.38 510.832 1499.71 514.207C1499.03 516.905 1498.36 519.606 1497.69 522.304C1496.34 515.556 1492.98 508.807 1488.94 504.084C1486.25 501.386 1482.21 495.311 1478.18 495.987C1472.8 495.987 1472.8 502.735 1474.14 506.782C1477.51 516.229 1490.29 523.653 1494.99 531.75C1492.98 538.499 1490.96 544.571 1488.27 551.319C1488.27 543.898 1484.9 535.124 1482.89 530.401C1480.87 526.351 1476.83 521.628 1472.12 520.955C1466.74 520.279 1464.73 525.678 1466.07 530.401C1467.42 535.124 1470.78 539.848 1474.14 543.898C1477.51 548.621 1480.87 555.369 1484.9 559.417C1483.56 562.115 1482.21 565.489 1481.54 568.19C1481.54 568.866 1480.87 569.539 1480.87 569.539C1480.19 567.514 1479.52 565.489 1479.52 564.14C1478.18 559.417 1476.16 554.693 1471.45 551.992C1466.74 549.292 1460.69 548.618 1459.34 551.992C1458 554.691 1460.02 559.414 1462.71 562.788C1465.4 566.162 1469.43 568.187 1472.8 571.561C1474.81 573.586 1476.16 575.611 1477.5 577.634C1474.14 584.382 1470.78 590.454 1467.41 596.527C1466.07 591.128 1462.03 582.357 1460.69 580.332C1458.67 576.958 1455.3 573.584 1451.27 572.235C1447.23 570.885 1443.2 571.559 1441.85 574.26C1440.51 577.634 1443.2 581.681 1446.56 584.382C1448.58 586.407 1460.69 598.552 1464.72 600.577C1461.36 606.649 1458 612.724 1454.63 618.796C1453.29 620.821 1457.32 624.195 1458.67 622.17C1464.72 615.422 1469.43 608.001 1474.14 599.903C1476.83 600.579 1480.19 599.227 1482.89 599.903C1487.59 601.252 1492.98 603.277 1497.68 604.627C1502.39 605.302 1507.77 604.627 1509.12 599.903C1509.12 598.554 1509.12 597.205 1508.45 595.853C1506.43 591.803 1501.05 589.781 1497.01 589.781C1490.28 589.105 1482.89 590.457 1476.83 593.155C1479.52 587.756 1482.21 582.359 1484.23 577.636C1484.9 577.636 1485.57 576.96 1485.57 576.96C1488.26 575.611 1490.96 574.262 1494.32 574.262C1497.01 574.262 1499.7 574.938 1502.39 575.611C1506.43 576.287 1509.79 576.96 1513.15 576.96C1517.19 576.96 1521.22 576.285 1523.24 573.586C1525.26 570.888 1525.26 566.165 1521.9 563.464C1519.88 561.439 1516.52 560.766 1513.83 560.766C1505.75 560.09 1498.36 562.791 1492.97 566.838C1490.28 568.863 1488.27 570.888 1486.25 572.91C1488.94 566.162 1491.63 559.414 1494.32 551.992C1497.01 551.317 1500.37 550.643 1503.74 550.643C1508.44 550.643 1512.48 550.643 1517.19 551.319C1521.23 551.319 1525.93 551.319 1529.3 550.643C1535.35 548.618 1539.39 543.895 1539.39 538.496C1539.39 536.471 1539.39 533.097 1537.37 531.748C1534.68 529.723 1531.32 529.05 1528.62 529.723C1519.88 530.399 1512.48 533.097 1505.75 537.144C1503.74 538.493 1500.37 541.194 1497.01 543.893C1499.03 537.144 1501.05 531.072 1503.06 524.324C1509.11 520.274 1515.84 516.902 1524.59 515.551C1529.3 514.875 1534.68 514.875 1539.39 514.201C1544.09 513.526 1548.8 512.176 1551.49 508.802C1553.51 506.104 1554.18 501.381 1550.82 498.68C1550.15 498.004 1548.8 497.331 1547.46 496.655C1538.71 492.605 1530.64 495.979 1524.59 500.705C1518.53 505.428 1509.79 512.176 1505.08 519.598C1507.1 510.825 1509.12 502.727 1511.13 493.957C1515.17 491.258 1521.22 490.583 1525.93 489.907C1534.68 488.558 1544.09 488.558 1552.17 485.857C1557.55 483.832 1562.26 481.134 1563.6 476.41C1563.6 475.735 1564.27 475.061 1563.6 473.712C1562.93 472.363 1560.91 471.014 1559.56 470.338C1555.53 468.313 1550.82 468.313 1546.78 468.989C1536.69 470.338 1527.95 475.061 1520.55 481.136C1517.19 484.51 1513.82 487.884 1511.13 491.258C1513.15 483.161 1514.5 474.388 1515.84 465.617C1515.84 464.941 1515.84 464.268 1515.84 463.592C1521.89 463.592 1527.95 462.243 1534 462.243C1540.06 461.567 1546.11 460.894 1549.47 456.844C1550.15 455.495 1550.82 453.47 1550.82 452.121C1550.14 448.747 1546.78 446.048 1543.42 444.699C1540.06 443.35 1536.69 444.023 1534 444.699C1529.97 445.375 1523.24 449.423 1517.86 453.472C1518.53 448.749 1519.2 443.35 1519.88 438.627C1528.62 436.602 1538.04 437.951 1546.11 435.253C1552.84 433.228 1557.55 429.18 1559.57 423.106C1560.24 421.756 1560.24 419.056 1558.89 417.706C1557.55 416.357 1555.53 415.681 1554.18 415.681C1545.44 415.006 1537.37 417.706 1531.31 421.754C1529.3 423.103 1523.24 427.153 1520.55 431.2C1522.57 423.103 1525.26 415.681 1529.97 408.933C1533.33 405.559 1536.7 402.185 1540.73 400.16C1546.11 397.462 1551.49 394.761 1556.2 391.387C1560.91 388.013 1564.95 383.289 1566.29 377.89C1568.99 373.172 1566.97 367.1 1562.26 365.075Z" fill="#F8BBD0"/>
<path fill-rule="evenodd" clip-rule="evenodd" d="M1414.24 501.265C1412.66 487.602 1387.4 438.729 1379.5 429.795C1393.19 475.516 1373.71 467.632 1384.24 544.885C1387.4 568.008 1403.71 604.795 1417.4 604.795C1430.03 604.795 1430.56 587.978 1432.66 582.198C1437.4 566.431 1432.14 462.905 1426.35 453.445C1417.93 472.362 1415.29 498.111 1414.24 501.265Z" fill="#4CAF50"/>
<path fill-rule="evenodd" clip-rule="evenodd" d="M1453.49 485.795C1448.83 492.592 1446.76 500.957 1442.1 507.754C1438.48 512.982 1439 520.301 1435.9 525.53C1433.31 531.28 1428.13 533.894 1427.62 541.737C1427.62 545.396 1428.65 548.534 1428.14 551.67C1427.62 555.853 1426.07 559.513 1426.07 564.217C1426.07 567.355 1427.1 570.491 1427.1 573.105C1427.1 581.47 1414.16 595.064 1424.51 602.383C1423.99 609.181 1425.03 611.795 1428.65 611.795C1436.42 611.795 1435.9 603.952 1437.45 599.771C1439 594.543 1444.69 591.407 1445.21 584.609C1445.73 580.95 1443.66 576.767 1443.66 573.631C1444.18 571.017 1446.25 569.971 1447.28 567.881C1450.39 562.652 1450.9 556.379 1450.39 550.629C1450.39 546.969 1447.28 541.741 1447.8 538.605C1448.83 532.331 1454.53 530.762 1452.97 522.398C1452.46 519.784 1450.39 516.648 1450.39 514.034C1450.39 511.419 1452.46 509.329 1452.97 507.236C1456.08 499.911 1453.49 492.592 1453.49 485.795V485.795Z" fill="#01579B"/>
<path fill-rule="evenodd" clip-rule="evenodd" d="M1428.27 567.516C1421.42 570.148 1415.62 580.151 1414.04 589.628C1412.46 584.89 1410.35 580.678 1408.77 575.941C1411.94 569.623 1420.37 566.991 1423 559.093C1425.64 550.671 1417.73 546.458 1411.94 553.303C1409.3 556.463 1407.72 564.358 1407.19 570.15C1406.14 566.991 1404.56 562.253 1403.5 559.095C1402.45 556.463 1401.4 553.305 1400.34 550.673C1404.56 544.883 1416.15 540.143 1413.52 530.141C1411.41 523.296 1403.5 521.718 1400.34 529.088C1398.76 532.773 1397.71 538.565 1397.71 543.828C1395.6 538.563 1393.49 533.298 1390.85 528.561C1395.07 521.191 1409.3 516.453 1408.24 506.449C1407.19 498.026 1397.18 500.658 1393.49 506.449C1389.8 512.239 1389.8 519.611 1389.8 526.981C1387.69 523.296 1386.11 519.611 1384 515.926C1386.64 509.081 1394.54 502.238 1393.49 493.814C1391.91 485.391 1382.42 480.126 1378.74 490.654C1376.63 496.444 1377.68 502.762 1379.79 509.079C1377.15 505.394 1374.52 501.182 1371.88 497.497C1371.88 494.864 1371.88 491.179 1372.94 487.494C1373.99 483.282 1375.57 478.544 1373.47 474.859C1369.78 468.015 1365.56 473.807 1365.56 479.597C1365.03 483.809 1366.61 488.02 1368.19 492.759C1365.03 488.547 1359.76 482.757 1356.6 479.072C1356.07 470.649 1368.19 448.537 1354.49 453.275C1348.17 455.38 1350.8 469.069 1353.96 476.439C1351.86 474.334 1347.11 469.595 1346.59 469.595C1346.06 462.75 1348.69 439.587 1339.21 442.22C1331.83 444.325 1337.1 456.434 1340.26 462.224C1340.79 462.752 1341.32 463.804 1341.84 465.384C1338.68 462.224 1334.99 459.594 1331.83 456.962C1332.36 454.329 1332.89 450.644 1332.36 446.959C1332.36 444.327 1330.25 433.797 1325.51 440.114C1323.93 442.22 1325.51 449.592 1328.14 454.329C1325.51 452.224 1322.87 450.644 1320.24 449.064C1303.37 434.324 1301.79 406.947 1288.62 415.372C1272.8 425.374 1283.87 436.957 1290.2 440.642C1295.47 443.801 1305.48 447.486 1316.02 448.539C1318.66 450.644 1330.25 459.594 1331.31 461.174C1320.76 455.909 1300.21 445.379 1298.63 456.436C1297.05 466.439 1323.4 462.226 1333.41 463.281C1337.63 466.966 1347.64 476.969 1348.7 478.021C1343.96 475.916 1339.21 471.704 1333.94 471.176C1329.2 470.649 1320.24 472.756 1322.35 478.021C1325.51 485.918 1337.1 481.706 1343.43 481.181C1347.64 480.654 1350.28 481.708 1351.33 480.654C1356.08 485.918 1360.82 491.183 1365.04 496.973C1357.66 491.183 1338.16 480.126 1336.05 491.709C1333.41 506.449 1356.08 496.973 1366.09 498.553C1370.31 504.343 1374.52 510.661 1378.21 516.453C1372.94 511.715 1368.2 506.451 1360.82 503.818C1353.97 501.713 1344.48 503.291 1348.7 513.295C1351.86 520.665 1365.04 516.455 1372.41 517.508C1375.58 518.035 1378.21 519.087 1380.32 519.613C1383.48 525.403 1386.64 531.72 1389.28 538.038C1375.05 533.3 1356.6 511.188 1352.39 526.456C1348.7 540.143 1374.52 531.72 1390.33 540.143C1392.97 545.933 1395.07 551.725 1397.18 557.515C1394.02 553.303 1389.81 550.145 1385.59 546.986C1382.43 544.353 1369.78 539.088 1368.72 547.513C1367.67 555.936 1382.95 556.463 1387.7 556.99C1392.44 557.517 1395.6 559.095 1398.76 561.728C1399.29 562.78 1403.51 576.468 1405.62 582.26C1398.76 573.837 1362.4 548.04 1361.87 571.205C1361.35 585.945 1389.28 577.522 1397.18 579.102C1402.45 580.155 1405.09 582.262 1406.67 584.892C1407.73 588.052 1409.31 591.21 1410.36 594.37C1401.4 587.525 1381.37 575.945 1380.32 591.737C1378.74 610.162 1398.77 597.002 1403.51 597.527C1407.73 598.055 1412.47 597.527 1414.05 602.265C1415.63 605.95 1417.74 609.635 1420.38 612.795C1421.96 615.427 1425.65 612.267 1424.59 610.162C1421.96 605.425 1419.32 600.16 1417.21 594.895C1421.96 588.577 1435.13 582.787 1437.77 578.048C1440.4 570.148 1435.65 564.358 1428.27 567.516Z" fill="#F8BBD0"/>
<path fill-rule="evenodd" clip-rule="evenodd" d="M1545.17 531.338C1470.07 541.49 1465.34 605.78 1468.04 609.842C1499.17 613.904 1531.64 606.458 1576.29 558.41C1599.97 532.694 1612.82 496.826 1613.5 494.795C1601.32 509.681 1570.2 527.954 1545.17 531.338Z" fill="#9083D5"/>
</g>
<ellipse cx="420" cy="419.295" rx="419" ry="418.5" stroke="#B3E5FC"/>
<circle opacity="0.196894" cx="420" cy="419.295" r="345.5" fill="url(#paint0_linear_535_4559)"/>
<defs>
<linearGradient id="paint0_linear_535_4559" x1="-101.773" y1="400.352" x2="308.425" y2="940.174" gradientUnits="userSpaceOnUse">
<stop stop-color="#C8E6C9"/>
<stop offset="1" stop-color="#B3E5FC"/>
</linearGradient>
</defs>
</svg>
