<svg width="1614" height="839" viewBox="0 0 1614 839" fill="none" xmlns="http://www.w3.org/2000/svg">
<g opacity="0.104143">
<ellipse cx="1441.5" cy="623" rx="81" ry="8" fill="#B3E5FC"/>
<path fill-rule="evenodd" clip-rule="evenodd" d="M1344.33 541.621C1305.67 525.963 1288.95 508.74 1278.5 503C1309.32 560.933 1392.4 637.132 1423.22 608.948C1431.58 601.641 1398.15 563.543 1344.33 541.621Z" fill="#9083D5"/>
<path fill-rule="evenodd" clip-rule="evenodd" d="M1425.52 609.755C1426.04 613.94 1483.56 609.755 1502.38 562.684C1517.54 526.074 1529.57 520.843 1539.5 513C1464.73 524.506 1424.47 599.294 1425.52 609.755Z" fill="#B3E5FC"/>
<path fill-rule="evenodd" clip-rule="evenodd" d="M1562.26 365.28C1560.24 364.604 1557.55 365.28 1555.53 365.956C1535.35 372.704 1515.85 394.971 1521.23 418.59C1517.87 426.011 1515.85 433.435 1513.83 442.206C1513.83 435.458 1513.16 427.361 1507.78 421.961C1501.05 415.213 1496.34 419.936 1496.34 426.685C1496.34 433.433 1499.71 434.782 1504.41 440.181C1508.45 444.231 1510.47 448.954 1512.49 450.303C1511.81 453.002 1511.81 455.703 1511.14 458.401C1510.47 462.451 1509.8 466.498 1509.12 470.548C1508.45 468.523 1508.45 466.498 1508.45 465.825C1506.43 457.728 1504.41 448.281 1497.69 440.857C1490.96 434.109 1482.22 434.785 1481.54 442.882C1480.87 449.63 1490.29 453.678 1496.34 458.401C1503.07 463.8 1505.76 468.523 1509.12 472.571C1507.78 479.319 1506.43 486.067 1505.09 492.815C1504.41 484.718 1501.05 475.271 1497.69 469.872C1490.96 460.426 1482.89 467.174 1481.54 473.922C1480.2 481.344 1486.93 486.743 1492.31 492.142C1496.34 496.192 1500.38 501.588 1502.4 504.289C1501.72 507.663 1500.38 511.037 1499.71 514.412C1499.03 517.11 1498.36 519.811 1497.69 522.509C1496.34 515.761 1492.98 509.012 1488.94 504.289C1486.25 501.591 1482.21 495.516 1478.18 496.192C1472.8 496.192 1472.8 502.94 1474.14 506.988C1477.51 516.434 1490.29 523.858 1494.99 531.955C1492.98 538.704 1490.96 544.776 1488.27 551.524C1488.27 544.103 1484.9 535.33 1482.89 530.606C1480.87 526.556 1476.83 521.833 1472.12 521.16C1466.74 520.484 1464.73 525.883 1466.07 530.606C1467.42 535.33 1470.78 540.053 1474.14 544.103C1477.51 548.826 1480.87 555.574 1484.9 559.622C1483.56 562.32 1482.21 565.694 1481.54 568.395C1481.54 569.071 1480.87 569.744 1480.87 569.744C1480.19 567.719 1479.52 565.694 1479.52 564.345C1478.18 559.622 1476.16 554.898 1471.45 552.198C1466.74 549.497 1460.69 548.823 1459.34 552.198C1458 554.896 1460.02 559.619 1462.71 562.993C1465.4 566.367 1469.43 568.392 1472.8 571.766C1474.81 573.791 1476.16 575.816 1477.5 577.839C1474.14 584.587 1470.78 590.659 1467.41 596.732C1466.07 591.333 1462.03 582.562 1460.69 580.537C1458.67 577.163 1455.3 573.789 1451.27 572.44C1447.23 571.091 1443.2 571.764 1441.85 574.465C1440.51 577.839 1443.2 581.886 1446.56 584.587C1448.58 586.612 1460.69 598.757 1464.72 600.782C1461.36 606.854 1458 612.929 1454.63 619.001C1453.29 621.026 1457.32 624.4 1458.67 622.375C1464.72 615.627 1469.43 608.206 1474.14 600.108C1476.83 600.784 1480.19 599.433 1482.89 600.108C1487.59 601.458 1492.98 603.482 1497.68 604.832C1502.39 605.507 1507.77 604.832 1509.12 600.108C1509.12 598.759 1509.12 597.41 1508.45 596.058C1506.43 592.009 1501.05 589.986 1497.01 589.986C1490.28 589.31 1482.89 590.662 1476.83 593.36C1479.52 587.961 1482.21 582.565 1484.23 577.841C1484.9 577.841 1485.57 577.165 1485.57 577.165C1488.26 575.816 1490.96 574.467 1494.32 574.467C1497.01 574.467 1499.7 575.143 1502.39 575.816C1506.43 576.492 1509.79 577.165 1513.15 577.165C1517.19 577.165 1521.22 576.49 1523.24 573.791C1525.26 571.093 1525.26 566.37 1521.9 563.669C1519.88 561.644 1516.52 560.971 1513.83 560.971C1505.75 560.295 1498.36 562.996 1492.97 567.043C1490.28 569.068 1488.27 571.093 1486.25 573.116C1488.94 566.367 1491.63 559.619 1494.32 552.198C1497.01 551.522 1500.37 550.848 1503.74 550.848C1508.44 550.848 1512.48 550.848 1517.19 551.524C1521.23 551.524 1525.93 551.524 1529.3 550.848C1535.35 548.823 1539.39 544.1 1539.39 538.701C1539.39 536.676 1539.39 533.302 1537.37 531.953C1534.68 529.928 1531.32 529.255 1528.62 529.928C1519.88 530.604 1512.48 533.302 1505.75 537.349C1503.74 538.699 1500.37 541.399 1497.01 544.098C1499.03 537.349 1501.05 531.277 1503.06 524.529C1509.11 520.479 1515.84 517.107 1524.59 515.756C1529.3 515.08 1534.68 515.08 1539.39 514.406C1544.09 513.731 1548.8 512.382 1551.49 509.007C1553.51 506.309 1554.18 501.586 1550.82 498.885C1550.15 498.209 1548.8 497.536 1547.46 496.86C1538.71 492.81 1530.64 496.184 1524.59 500.91C1518.53 505.633 1509.79 512.382 1505.08 519.803C1507.1 511.03 1509.12 502.932 1511.13 494.162C1515.17 491.464 1521.22 490.788 1525.93 490.112C1534.68 488.763 1544.09 488.763 1552.17 486.062C1557.55 484.037 1562.26 481.339 1563.6 476.615C1563.6 475.94 1564.27 475.266 1563.6 473.917C1562.93 472.568 1560.91 471.219 1559.56 470.543C1555.53 468.518 1550.82 468.518 1546.78 469.194C1536.69 470.543 1527.95 475.266 1520.55 481.341C1517.19 484.715 1513.82 488.089 1511.13 491.464C1513.15 483.366 1514.5 474.593 1515.84 465.822C1515.84 465.146 1515.84 464.473 1515.84 463.797C1521.89 463.797 1527.95 462.448 1534 462.448C1540.06 461.772 1546.11 461.099 1549.47 457.049C1550.15 455.7 1550.82 453.675 1550.82 452.326C1550.14 448.952 1546.78 446.254 1543.42 444.904C1540.06 443.555 1536.69 444.229 1534 444.904C1529.97 445.58 1523.24 449.628 1517.86 453.678C1518.53 448.954 1519.2 443.555 1519.88 438.832C1528.62 436.807 1538.04 438.156 1546.11 435.458C1552.84 433.433 1557.55 429.386 1559.57 423.311C1560.24 421.961 1560.24 419.261 1558.89 417.911C1557.55 416.562 1555.53 415.887 1554.18 415.887C1545.44 415.211 1537.37 417.911 1531.31 421.959C1529.3 423.308 1523.24 427.358 1520.55 431.405C1522.57 423.308 1525.26 415.886 1529.97 409.138C1533.33 405.764 1536.7 402.39 1540.73 400.365C1546.11 397.667 1551.49 394.966 1556.2 391.592C1560.91 388.218 1564.95 383.495 1566.29 378.095C1568.99 373.377 1566.97 367.305 1562.26 365.28Z" fill="#F8BBD0"/>
<path fill-rule="evenodd" clip-rule="evenodd" d="M1414.24 501.47C1412.66 487.807 1387.4 438.934 1379.5 430C1393.19 475.721 1373.71 467.838 1384.24 545.09C1387.4 568.213 1403.71 605 1417.4 605C1430.03 605 1430.56 588.183 1432.66 582.403C1437.4 566.636 1432.14 463.11 1426.35 453.65C1417.93 472.567 1415.29 498.316 1414.24 501.47Z" fill="#4CAF50"/>
<path fill-rule="evenodd" clip-rule="evenodd" d="M1453.49 486C1448.83 492.797 1446.76 501.162 1442.1 507.959C1438.48 513.187 1439 520.506 1435.9 525.735C1433.31 531.485 1428.13 534.099 1427.62 541.942C1427.62 545.601 1428.65 548.739 1428.14 551.875C1427.62 556.058 1426.07 559.718 1426.07 564.422C1426.07 567.56 1427.1 570.696 1427.1 573.31C1427.1 581.675 1414.16 595.269 1424.51 602.588C1423.99 609.386 1425.03 612 1428.65 612C1436.42 612 1435.9 604.157 1437.45 599.976C1439 594.748 1444.69 591.612 1445.21 584.815C1445.73 581.155 1443.66 576.972 1443.66 573.836C1444.18 571.222 1446.25 570.177 1447.28 568.086C1450.39 562.858 1450.9 556.584 1450.39 550.834C1450.39 547.174 1447.28 541.946 1447.8 538.81C1448.83 532.536 1454.53 530.967 1452.97 522.603C1452.46 519.989 1450.39 516.853 1450.39 514.239C1450.39 511.624 1452.46 509.534 1452.97 507.441C1456.08 500.116 1453.49 492.797 1453.49 486V486Z" fill="#01579B"/>
<path fill-rule="evenodd" clip-rule="evenodd" d="M1428.27 567.721C1421.42 570.353 1415.62 580.356 1414.04 589.833C1412.46 585.095 1410.35 580.883 1408.77 576.146C1411.94 569.828 1420.37 567.196 1423 559.298C1425.64 550.876 1417.73 546.664 1411.94 553.508C1409.3 556.668 1407.72 564.563 1407.19 570.355C1406.14 567.196 1404.56 562.458 1403.5 559.3C1402.45 556.668 1401.4 553.51 1400.34 550.878C1404.56 545.088 1416.15 540.348 1413.52 530.346C1411.41 523.501 1403.5 521.923 1400.34 529.293C1398.76 532.978 1397.71 538.77 1397.71 544.033C1395.6 538.768 1393.49 533.503 1390.85 528.766C1395.07 521.396 1409.3 516.658 1408.24 506.654C1407.19 498.231 1397.18 500.864 1393.49 506.654C1389.8 512.444 1389.8 519.816 1389.8 527.186C1387.69 523.501 1386.11 519.816 1384 516.131C1386.64 509.286 1394.54 502.443 1393.49 494.019C1391.91 485.596 1382.42 480.331 1378.74 490.859C1376.63 496.649 1377.68 502.967 1379.79 509.284C1377.15 505.599 1374.52 501.387 1371.88 497.702C1371.88 495.069 1371.88 491.384 1372.94 487.699C1373.99 483.487 1375.57 478.749 1373.47 475.064C1369.78 468.22 1365.56 474.012 1365.56 479.802C1365.03 484.014 1366.61 488.225 1368.19 492.964C1365.03 488.752 1359.76 482.962 1356.6 479.277C1356.07 470.854 1368.19 448.742 1354.49 453.48C1348.17 455.585 1350.8 469.274 1353.96 476.644C1351.86 474.539 1347.11 469.8 1346.59 469.8C1346.06 462.955 1348.69 439.792 1339.21 442.425C1331.83 444.53 1337.1 456.639 1340.26 462.43C1340.79 462.957 1341.32 464.009 1341.84 465.589C1338.68 462.43 1334.99 459.799 1331.83 457.167C1332.36 454.534 1332.89 450.849 1332.36 447.164C1332.36 444.532 1330.25 434.002 1325.51 440.319C1323.93 442.425 1325.51 449.797 1328.14 454.534C1325.51 452.429 1322.87 450.849 1320.24 449.269C1303.37 434.529 1301.79 407.152 1288.62 415.577C1272.8 425.579 1283.87 437.162 1290.2 440.847C1295.47 444.007 1305.48 447.692 1316.02 448.744C1318.66 450.849 1330.25 459.799 1331.31 461.379C1320.76 456.114 1300.21 445.584 1298.63 456.641C1297.05 466.644 1323.4 462.432 1333.41 463.486C1337.63 467.171 1347.64 477.174 1348.7 478.226C1343.96 476.121 1339.21 471.909 1333.94 471.381C1329.2 470.854 1320.24 472.961 1322.35 478.226C1325.51 486.123 1337.1 481.911 1343.43 481.386C1347.64 480.859 1350.28 481.913 1351.33 480.859C1356.08 486.123 1360.82 491.388 1365.04 497.178C1357.66 491.388 1338.16 480.331 1336.05 491.914C1333.41 506.654 1356.08 497.179 1366.09 498.758C1370.31 504.549 1374.52 510.866 1378.21 516.658C1372.94 511.921 1368.2 506.656 1360.82 504.023C1353.97 501.918 1344.48 503.496 1348.7 513.5C1351.86 520.87 1365.04 516.66 1372.41 517.713C1375.58 518.24 1378.21 519.293 1380.32 519.818C1383.48 525.608 1386.64 531.925 1389.28 538.243C1375.05 533.505 1356.6 511.393 1352.39 526.661C1348.7 540.348 1374.52 531.925 1390.33 540.348C1392.97 546.138 1395.07 551.93 1397.18 557.721C1394.02 553.508 1389.81 550.351 1385.59 547.191C1382.43 544.558 1369.78 539.294 1368.72 547.718C1367.67 556.141 1382.95 556.668 1387.7 557.195C1392.44 557.723 1395.6 559.3 1398.76 561.933C1399.29 562.985 1403.51 576.673 1405.62 582.465C1398.76 574.042 1362.4 548.245 1361.87 571.41C1361.35 586.15 1389.28 577.727 1397.18 579.307C1402.45 580.36 1405.09 582.467 1406.67 585.098C1407.73 588.257 1409.31 591.415 1410.36 594.575C1401.4 587.73 1381.37 576.15 1380.32 591.942C1378.74 610.367 1398.77 597.207 1403.51 597.732C1407.73 598.26 1412.47 597.732 1414.05 602.47C1415.63 606.155 1417.74 609.84 1420.38 613C1421.96 615.632 1425.65 612.472 1424.59 610.367C1421.96 605.63 1419.32 600.365 1417.21 595.1C1421.96 588.783 1435.13 582.992 1437.77 578.253C1440.4 570.353 1435.65 564.563 1428.27 567.721Z" fill="#F8BBD0"/>
<path fill-rule="evenodd" clip-rule="evenodd" d="M1545.17 531.543C1470.07 541.695 1465.34 605.985 1468.04 610.047C1499.17 614.109 1531.64 606.663 1576.29 558.615C1599.97 532.899 1612.82 497.031 1613.5 495C1601.32 509.886 1570.2 528.159 1545.17 531.543Z" fill="#9083D5"/>
</g>
<ellipse cx="420" cy="419.5" rx="419" ry="418.5" stroke="#B3E5FC"/>
<circle opacity="0.196894" cx="420" cy="419.5" r="345.5" fill="url(#paint0_linear_473_11109)"/>
<defs>
<linearGradient id="paint0_linear_473_11109" x1="-101.773" y1="400.557" x2="308.425" y2="940.38" gradientUnits="userSpaceOnUse">
<stop stop-color="#C8E6C9"/>
<stop offset="1" stop-color="#B3E5FC"/>
</linearGradient>
</defs>
</svg>
