<svg width="235" height="39" viewBox="0 0 235 39" fill="none" xmlns="http://www.w3.org/2000/svg">
<path d="M1.0127 5.16992C1.0127 2.68464 3.02741 0.669922 5.5127 0.669922H229.876C232.362 0.669922 234.376 2.68464 234.376 5.16992V33.6699C234.376 36.1552 232.362 38.1699 229.876 38.1699H5.51269C3.02741 38.1699 1.0127 36.1552 1.0127 33.6699V5.16992Z" fill="white"/>
<path fill-rule="evenodd" clip-rule="evenodd" d="M28.0034 9.66992C22.0224 9.66992 17.1738 14.0352 17.1738 19.4199C17.1738 24.8047 22.0224 29.1699 28.0034 29.1699C33.9844 29.1699 38.833 24.8047 38.833 19.4199C38.833 14.0352 33.9844 9.66992 28.0034 9.66992ZM26.8815 27.7166C24.8268 27.4951 22.9257 26.667 21.4397 25.3292C19.6864 23.7507 18.7209 21.6521 18.7209 19.4198C18.7209 17.4103 19.5038 15.5093 20.939 13.9983C20.9759 14.3975 21.0672 14.8255 21.0438 15.1315C20.9584 16.2469 20.8362 16.9449 21.5614 17.886C21.8439 18.2525 21.9133 18.7779 22.0508 19.2021C22.1853 19.6172 22.7225 19.8348 23.0931 20.0905C23.8407 20.6066 24.5559 21.2064 25.3486 21.6606C25.8718 21.9603 26.1987 22.1094 26.0454 22.6843C25.9222 23.1466 25.8878 23.4313 25.6221 23.8432C25.5411 23.9688 25.9281 24.7768 26.0569 24.8928C26.4473 25.2442 26.8347 25.5666 27.2602 25.883C27.9199 26.3738 27.1961 27.0114 26.8815 27.7166ZM34.5672 25.3292C33.2326 26.5308 31.5631 27.3208 29.7482 27.6299C30.0054 27.0573 30.4634 26.5485 30.8882 26.2536C31.2577 25.9969 31.7205 25.5031 31.9135 25.1121C32.1064 24.7215 32.3618 24.3829 32.6204 24.0238C32.9882 23.5129 31.7135 22.7424 31.3004 22.5809C30.3708 22.2176 29.671 21.7273 28.8449 21.204C28.2563 20.8311 27.0613 21.3987 26.3968 21.1375C25.4867 20.7797 24.7368 20.158 23.9457 19.6217C23.1293 19.0681 23.1688 18.4228 23.1688 17.6062C23.8082 17.6274 24.7179 17.4468 25.1424 17.9098C25.2764 18.0559 25.737 18.7087 26.0454 18.4767C26.2973 18.2872 25.8587 17.5276 25.774 17.349C25.5134 16.7998 26.3678 16.5857 26.8051 16.2133C27.3757 15.7275 28.5997 14.9656 28.503 14.6173C28.4063 14.2691 27.2782 13.2825 26.6157 13.4364C26.5164 13.4595 25.6422 14.2847 25.4733 14.4142C25.4778 14.1448 25.4823 13.8755 25.4869 13.6062C25.4897 13.4361 25.1345 13.2616 25.151 13.1519C25.1926 12.8747 26.0497 12.3715 26.2629 12.1508C26.1136 12.0667 25.6039 11.6725 25.4496 11.7304C25.0761 11.8705 24.6542 11.9671 24.2807 12.1072C24.2807 11.9906 24.265 11.881 24.2462 11.7729C24.9947 11.4745 25.7867 11.267 26.6053 11.1564L27.3386 11.4217L27.8564 11.9748L28.3731 12.4545L28.8247 12.5855L29.5421 11.9764L29.3571 11.5415V11.1506C30.7759 11.3362 32.1158 11.8127 33.2892 12.5475C33.0793 12.5644 32.8486 12.5922 32.5883 12.622C32.4808 12.5649 32.3429 12.5389 32.2257 12.4991C32.5657 13.1573 32.9204 13.8064 33.2807 14.4559C33.6657 15.1497 34.5195 15.8939 34.6695 16.6263C34.8462 17.4895 34.7236 18.2737 34.8203 19.2893C34.9134 20.2674 36.045 21.3786 36.045 21.3786C36.045 21.3786 36.5676 21.5389 37.0022 21.4831C36.5971 22.926 35.7666 24.2493 34.5672 25.3292Z" fill="#00579B"/>
<path d="M1.0127 5.16992C1.0127 2.68464 3.02741 0.669922 5.5127 0.669922H229.876C232.362 0.669922 234.376 2.68464 234.376 5.16992V33.6699C234.376 36.1552 232.362 38.1699 229.876 38.1699H5.51269C3.02741 38.1699 1.0127 36.1552 1.0127 33.6699V5.16992Z" stroke="#03ACF2"/>
</svg>
