<svg width="212" height="38" viewBox="0 0 212 38" fill="none" xmlns="http://www.w3.org/2000/svg">
<ellipse cx="19.7371" cy="18.9199" rx="19.4598" ry="18.75" fill="black" fill-opacity="0.08"/>
<path fill-rule="evenodd" clip-rule="evenodd" d="M21.7262 14.5033V12.0228C21.7262 10.903 21.9932 10.3366 23.8695 10.3366H26.2236V6.16992H22.2954C17.4818 6.16992 15.8937 8.21419 15.8937 11.7233V14.5033H12.7314V18.6699H15.8937V31.1699H21.7262V18.6699H25.6895L26.2236 14.5033H21.7262Z" fill="#9083D5"/>
<ellipse cx="77.3377" cy="18.9199" rx="19.4598" ry="18.75" fill="black" fill-opacity="0.08"/>
<path fill-rule="evenodd" clip-rule="evenodd" d="M85.4443 10.1699H69.853C69.0014 10.1699 68.2568 10.7607 68.2568 11.5718V26.6273C68.2568 27.4432 69.0014 28.1699 69.853 28.1699H85.4394C86.2958 28.1699 86.9382 27.4385 86.9382 26.6273V11.5718C86.9431 10.7607 86.2958 10.1699 85.4443 10.1699ZM74.0476 25.1737H71.3712V17.156H74.0476V25.1737ZM72.8019 15.937H72.7824C71.926 15.937 71.3712 15.3228 71.3712 14.5538C71.3712 13.7708 71.9406 13.1707 72.8165 13.1707C73.6924 13.1707 74.2277 13.7661 74.2471 14.5538C74.2471 15.3228 73.6924 15.937 72.8019 15.937ZM83.8288 25.1738H81.1523V20.7898C81.1523 19.7395 80.7631 19.0222 79.7947 19.0222C79.055 19.0222 78.6171 19.5051 78.4224 19.974C78.3494 20.1428 78.33 20.3725 78.33 20.607V25.1738H75.6535V17.1561H78.33V18.272C78.7192 17.7375 79.3275 16.9685 80.7436 16.9685C82.5003 16.9685 83.8288 18.0844 83.8288 20.4897V25.1738Z" fill="#9083D5"/>
<ellipse cx="134.939" cy="18.9199" rx="19.4598" ry="18.75" fill="black" fill-opacity="0.08"/>
<path fill-rule="evenodd" clip-rule="evenodd" d="M145.577 13.0658C144.812 13.3866 143.994 13.6033 143.132 13.7033C144.011 13.2033 144.689 12.4116 145.006 11.4699C144.183 11.9324 143.273 12.2699 142.3 12.4491C141.522 11.6616 140.413 11.1699 139.191 11.1699C136.837 11.1699 134.933 12.9783 134.933 15.2074C134.933 15.5241 134.968 15.8324 135.043 16.1283C131.502 15.9616 128.361 14.3533 126.263 11.9074C125.898 12.5033 125.687 13.1991 125.687 13.9366C125.687 15.3366 126.443 16.5741 127.587 17.2991C126.883 17.2824 126.223 17.0991 125.652 16.7949C125.652 16.8116 125.652 16.8283 125.652 16.8449C125.652 18.8033 127.121 20.4324 129.069 20.8033C128.713 20.8949 128.335 20.9449 127.948 20.9449C127.675 20.9449 127.407 20.9199 127.147 20.8699C127.688 22.4741 129.263 23.6408 131.128 23.6741C129.672 24.7574 127.833 25.4033 125.836 25.4033C125.493 25.4033 125.155 25.3824 124.82 25.3449C126.699 26.5033 128.937 27.1699 131.339 27.1699C139.182 27.1699 143.466 21.0158 143.466 15.6783C143.466 15.5033 143.462 15.3283 143.453 15.1574C144.284 14.5866 145.006 13.8783 145.577 13.0658Z" fill="#9083D5"/>
<ellipse cx="192.54" cy="18.9199" rx="19.4598" ry="18.75" fill="black" fill-opacity="0.08"/>
<ellipse cx="192.541" cy="19.1699" rx="3.63249" ry="3.5" fill="#9083D5"/>
<path fill-rule="evenodd" clip-rule="evenodd" d="M189.3 15.508C190.24 14.6014 191.491 14.0967 192.822 14.0967C194.153 14.0967 195.404 14.604 196.345 15.5106C196.942 16.0859 197.368 16.7771 197.6 17.5485H201.34V12.7057C201.34 11.5695 200.428 10.6914 199.249 10.6914H186.439C185.26 10.6914 184.26 11.5695 184.26 12.7057V17.5485H188.044C188.276 16.7771 188.703 16.0832 189.3 15.508ZM199.917 14.257C199.917 14.56 199.662 14.8056 199.347 14.8056H197.639C197.325 14.8056 197.07 14.56 197.07 14.257V12.6113C197.07 12.3084 197.325 12.0627 197.639 12.0627H199.347C199.662 12.0627 199.917 12.3083 199.917 12.6113V14.257Z" fill="#9083D5"/>
<path fill-rule="evenodd" clip-rule="evenodd" d="M196.345 22.2962C195.404 23.2028 194.153 23.6967 192.822 23.6967C191.491 23.6967 190.24 23.2055 189.3 22.2989C188.36 21.3939 187.842 20.1628 187.84 18.9199H184.26V25.0485C184.26 26.1846 185.26 27.1485 186.439 27.1485H199.249C200.428 27.1485 201.34 26.1846 201.34 25.0485V18.9199H197.804C197.802 20.1628 197.284 21.3912 196.345 22.2962Z" fill="#9083D5"/>
</svg>
