<svg width="40" height="43" viewBox="0 0 40 43" fill="none" xmlns="http://www.w3.org/2000/svg">
<g clip-path="url(#clip0_466_7929)">
<path d="M37.6326 7.69227C36.5672 4.20145 34.2959 1.63952 31.4012 0.66322C26.0643 -1.13671 21.6758 1.17758 20.0004 2.2855C18.3248 1.1775 13.9362 -1.13671 8.59962 0.66322C5.70399 1.63976 3.43251 4.20268 2.36743 7.69482C0.966882 12.2869 1.87134 17.4889 4.78712 21.61C6.05477 23.402 6.91188 25.3774 7.33454 27.4816C7.52227 28.4165 7.68548 29.445 7.81954 30.5388C8.22212 33.8236 8.81501 36.46 9.58188 38.3747C10.5005 40.6683 11.6856 41.907 13.1041 42.0562C13.1849 42.0647 13.2647 42.0689 13.344 42.0689C14.7402 42.0688 15.9072 40.7508 16.815 38.1459C17.4862 36.2202 18.0152 33.6398 18.3048 30.8798C18.4667 29.3366 18.8454 28.087 19.3998 27.2662C19.5983 26.9723 19.886 26.9406 20.0005 26.9406C20.1149 26.9406 20.4027 26.9723 20.6012 27.2662C21.1556 28.087 21.5342 29.3366 21.6961 30.8799C21.9857 33.6398 22.5148 36.2203 23.1859 38.146C24.0938 40.751 25.2606 42.069 26.657 42.0689C26.7362 42.0689 26.8162 42.0647 26.8968 42.0563C28.3154 41.9071 29.5005 40.6684 30.4191 38.3748C31.1859 36.46 31.7788 33.8237 32.1814 30.5389C32.3155 29.445 32.4787 28.4165 32.6663 27.4822C33.0887 25.3796 33.947 23.4022 35.2176 21.6049C38.1308 17.4837 39.0336 12.2827 37.6326 7.69227ZM33.3414 20.1379C31.8682 22.222 30.8715 24.522 30.3789 26.974C30.1784 27.9721 30.0047 29.0658 29.8627 30.2246C29.0432 36.9107 27.5163 39.4916 26.6788 39.6078C26.503 39.5423 25.9014 38.9341 25.2547 36.922C24.7066 35.2169 24.2681 32.9753 24.0199 30.6102C23.8116 28.624 23.3026 27.0198 22.5071 25.8422C21.9317 24.9903 20.9946 24.4817 20.0004 24.4817C19.0062 24.4817 18.0691 24.9903 17.4936 25.8423C16.6981 27.02 16.1892 28.6241 15.9808 30.6102C15.7326 32.9754 15.2941 35.217 14.7461 36.9221C14.0994 38.9342 13.4977 39.5424 13.3219 39.6079C12.4845 39.4917 10.9575 36.9108 10.1381 30.2247C9.99602 29.0662 9.82235 27.9723 9.62173 26.9736C9.12883 24.5196 8.13321 22.2213 6.66259 20.1425C4.19641 16.6566 3.42305 12.284 4.5936 8.44598C5.42524 5.71914 7.14555 3.7359 9.31344 3.00479C11.602 2.23284 13.962 2.2823 16.3276 3.15162C18.1345 3.81568 19.2683 4.73421 19.2767 4.74112L19.9987 5.33476L20.7212 4.74342C20.7324 4.73421 21.8663 3.81568 23.6731 3.15162C26.0388 2.28222 28.3986 2.23284 30.6873 3.00479H30.6874C32.8545 3.73565 34.5747 5.71815 35.4066 8.44384C36.5774 12.2804 35.8055 16.6521 33.3414 20.1379Z" fill="#9083D5"/>
</g>
<defs>
<clipPath id="clip0_466_7929">
<rect width="40" height="42.069" fill="white"/>
</clipPath>
</defs>
</svg>
