<svg width="41" height="43" viewBox="0 0 41 43" fill="none" xmlns="http://www.w3.org/2000/svg">
<g clip-path="url(#clip0_869_3942)">
<path d="M38.4656 7.69227C37.4002 4.20145 35.129 1.63952 32.2342 0.66322C26.8973 -1.13671 22.5088 1.17758 20.8334 2.2855C19.1578 1.1775 14.7692 -1.13671 9.43262 0.66322C6.537 1.63976 4.26551 4.20268 3.20044 7.69482C1.79989 12.2869 2.70434 17.4889 5.62012 21.61C6.88778 23.402 7.74489 25.3774 8.16755 27.4816C8.35528 28.4165 8.51848 29.445 8.65255 30.5388C9.05512 33.8236 9.64801 36.46 10.4149 38.3747C11.3335 40.6683 12.5186 41.907 13.9372 42.0562C14.0179 42.0647 14.0977 42.0689 14.177 42.0689C15.5732 42.0688 16.7402 40.7508 17.648 38.1459C18.3192 36.2202 18.8482 33.6398 19.1379 30.8798C19.2997 29.3366 19.6784 28.087 20.2328 27.2662C20.4313 26.9723 20.719 26.9406 20.8335 26.9406C20.9479 26.9406 21.2357 26.9723 21.4342 27.2662C21.9886 28.087 22.3672 29.3366 22.5291 30.8799C22.8187 33.6398 23.3478 36.2203 24.019 38.146C24.9268 40.751 26.0936 42.069 27.49 42.0689C27.5692 42.0689 27.6492 42.0647 27.7298 42.0563C29.1484 41.9071 30.3335 40.6684 31.2521 38.3748C32.0189 36.46 32.6118 33.8237 33.0144 30.5389C33.1485 29.445 33.3117 28.4165 33.4993 27.4822C33.9217 25.3796 34.78 23.4022 36.0506 21.6049C38.9638 17.4837 39.8666 12.2827 38.4656 7.69227ZM34.1744 20.1379C32.7012 22.222 31.7045 24.522 31.2119 26.974C31.0114 27.9721 30.8377 29.0658 30.6957 30.2246C29.8762 36.9107 28.3493 39.4916 27.5118 39.6078C27.336 39.5423 26.7344 38.9341 26.0877 36.922C25.5396 35.2169 25.1011 32.9753 24.8529 30.6102C24.6446 28.624 24.1356 27.0198 23.3401 25.8422C22.7647 24.9903 21.8276 24.4817 20.8334 24.4817C19.8392 24.4817 18.9021 24.9903 18.3266 25.8423C17.5311 27.02 17.0222 28.6241 16.8138 30.6102C16.5656 32.9754 16.1272 35.217 15.5791 36.9221C14.9324 38.9342 14.3307 39.5424 14.1549 39.6079C13.3175 39.4917 11.7905 36.9108 10.9711 30.2247C10.829 29.0662 10.6554 27.9723 10.4547 26.9736C9.96184 24.5196 8.96622 22.2213 7.49559 20.1425C5.02942 16.6566 4.25606 12.284 5.42661 8.44598C6.25825 5.71914 7.97856 3.7359 10.1465 3.00479C12.435 2.23284 14.795 2.2823 17.1606 3.15162C18.9675 3.81568 20.1013 4.73421 20.1097 4.74112L20.8317 5.33476L21.5542 4.74342C21.5654 4.73421 22.6993 3.81568 24.5061 3.15162C26.8718 2.28222 29.2316 2.23284 31.5203 3.00479H31.5204C33.6875 3.73565 35.4077 5.71815 36.2396 8.44384C37.4104 12.2804 36.6385 16.6521 34.1744 20.1379Z" fill="#9083D5"/>
</g>
<defs>
<clipPath id="clip0_869_3942">
<rect width="40" height="42.069" fill="white" transform="translate(0.833008)"/>
</clipPath>
</defs>
</svg>
