<svg width="123" height="132" viewBox="0 0 123 132" fill="none" xmlns="http://www.w3.org/2000/svg">
<g filter="url(#filter0_d_379_5276)">
<rect width="64" height="56" rx="16" fill="white"/>
</g>
<g clip-path="url(#clip0_379_5276)">
<path d="M24 17.3333H22.6667C21.9594 17.3333 21.2811 17.6142 20.781 18.1143C20.281 18.6144 20 19.2927 20 19.9999V24.6666C20 26.6115 20.7726 28.4768 22.1479 29.852C23.5232 31.2273 25.3884 31.9999 27.3333 31.9999C29.2783 31.9999 31.1435 31.2273 32.5188 29.852C33.894 28.4768 34.6667 26.6115 34.6667 24.6666V19.9999C34.6667 19.2927 34.3857 18.6144 33.8856 18.1143C33.3855 17.6142 32.7072 17.3333 32 17.3333H30.6667" stroke="#4F81FF" stroke-width="2" stroke-linecap="round" stroke-linejoin="round"/>
<path d="M26.6667 32C26.6667 33.0506 26.8736 34.0909 27.2756 35.0615C27.6777 36.0321 28.2669 36.914 29.0098 37.6569C29.7527 38.3997 30.6346 38.989 31.6052 39.391C32.5758 39.7931 33.6161 40 34.6667 40C35.7172 40 36.7575 39.7931 37.7281 39.391C38.6987 38.989 39.5807 38.3997 40.3235 37.6569C41.0664 36.914 41.6557 36.0321 42.0577 35.0615C42.4597 34.0909 42.6667 33.0506 42.6667 32V28" stroke="#4F81FF" stroke-width="2" stroke-linecap="round" stroke-linejoin="round"/>
<path d="M30.6667 16V18.6667" stroke="#4F81FF" stroke-width="2" stroke-linecap="round" stroke-linejoin="round"/>
<path d="M24 16V18.6667" stroke="#4F81FF" stroke-width="2" stroke-linecap="round" stroke-linejoin="round"/>
<path d="M42.6667 28.0001C44.1394 28.0001 45.3333 26.8062 45.3333 25.3334C45.3333 23.8607 44.1394 22.6667 42.6667 22.6667C41.1939 22.6667 40 23.8607 40 25.3334C40 26.8062 41.1939 28.0001 42.6667 28.0001Z" stroke="#4F81FF" stroke-width="2" stroke-linecap="round" stroke-linejoin="round"/>
</g>
<defs>
<filter id="filter0_d_379_5276" x="-59" y="-42" width="182" height="174" filterUnits="userSpaceOnUse" color-interpolation-filters="sRGB">
<feFlood flood-opacity="0" result="BackgroundImageFix"/>
<feColorMatrix in="SourceAlpha" type="matrix" values="0 0 0 0 0 0 0 0 0 0 0 0 0 0 0 0 0 0 127 0" result="hardAlpha"/>
<feMorphology radius="11" operator="erode" in="SourceAlpha" result="effect1_dropShadow_379_5276"/>
<feOffset dy="17"/>
<feGaussianBlur stdDeviation="35"/>
<feColorMatrix type="matrix" values="0 0 0 0 0 0 0 0 0 0 0 0 0 0 0 0 0 0 0.1 0"/>
<feBlend mode="normal" in2="BackgroundImageFix" result="effect1_dropShadow_379_5276"/>
<feBlend mode="normal" in="SourceGraphic" in2="effect1_dropShadow_379_5276" result="shape"/>
</filter>
<clipPath id="clip0_379_5276">
<rect width="32" height="32" fill="white" transform="translate(16 12)"/>
</clipPath>
</defs>
</svg>
