<svg width="18" height="19" viewBox="0 0 18 19" fill="none" xmlns="http://www.w3.org/2000/svg">
<path d="M1.5 7.87365C1.5 4.62972 4.12972 2 7.37365 2C10.6176 2 13.2473 4.62972 13.2473 7.87365C13.2473 9.24661 12.7762 10.5096 11.9869 11.5097L16.5 16.0228L15.5228 17L11.0097 12.4869C10.0096 13.2762 8.74661 13.7473 7.37365 13.7473C4.12972 13.7473 1.5 11.1176 1.5 7.87365ZM7.37365 3.38204C4.893 3.38204 2.88204 5.393 2.88204 7.87365C2.88204 10.3543 4.893 12.3653 7.37365 12.3653C9.8543 12.3653 11.8653 10.3543 11.8653 7.87365C11.8653 5.393 9.8543 3.38204 7.37365 3.38204Z" fill="#8E8E8E"/>
</svg>
