<svg width="212" height="39" viewBox="0 0 212 39" fill="none" xmlns="http://www.w3.org/2000/svg">
<ellipse cx="19.7371" cy="19.5449" rx="19.4598" ry="18.75" fill="black" fill-opacity="0.08"/>
<path fill-rule="evenodd" clip-rule="evenodd" d="M21.7262 15.1283V12.6478C21.7262 11.528 21.9932 10.9616 23.8695 10.9616H26.2236V6.79492H22.2954C17.4818 6.79492 15.8937 8.83919 15.8937 12.3483V15.1283H12.7314V19.2949H15.8937V31.7949H21.7262V19.2949H25.6895L26.2236 15.1283H21.7262Z" fill="#9083D5"/>
<ellipse cx="77.3377" cy="19.5449" rx="19.4598" ry="18.75" fill="black" fill-opacity="0.08"/>
<path fill-rule="evenodd" clip-rule="evenodd" d="M85.4443 10.7949H69.853C69.0014 10.7949 68.2568 11.3857 68.2568 12.1968V27.2523C68.2568 28.0682 69.0014 28.7949 69.853 28.7949H85.4394C86.2958 28.7949 86.9382 28.0635 86.9382 27.2523V12.1968C86.9431 11.3857 86.2958 10.7949 85.4443 10.7949ZM74.0476 25.7987H71.3712V17.781H74.0476V25.7987ZM72.8019 16.562H72.7824C71.926 16.562 71.3712 15.9478 71.3712 15.1788C71.3712 14.3958 71.9406 13.7957 72.8165 13.7957C73.6924 13.7957 74.2277 14.3911 74.2471 15.1788C74.2471 15.9478 73.6924 16.562 72.8019 16.562ZM83.8288 25.7988H81.1523V21.4148C81.1523 20.3645 80.7631 19.6472 79.7947 19.6472C79.055 19.6472 78.6171 20.1301 78.4224 20.599C78.3494 20.7678 78.33 20.9975 78.33 21.232V25.7988H75.6535V17.7811H78.33V18.897C78.7192 18.3625 79.3275 17.5935 80.7436 17.5935C82.5003 17.5935 83.8288 18.7094 83.8288 21.1147V25.7988Z" fill="#9083D5"/>
<ellipse cx="134.939" cy="19.5449" rx="19.4598" ry="18.75" fill="black" fill-opacity="0.08"/>
<path fill-rule="evenodd" clip-rule="evenodd" d="M145.577 13.6908C144.812 14.0116 143.994 14.2283 143.132 14.3283C144.011 13.8283 144.689 13.0366 145.006 12.0949C144.183 12.5574 143.273 12.8949 142.3 13.0741C141.522 12.2866 140.413 11.7949 139.191 11.7949C136.837 11.7949 134.933 13.6033 134.933 15.8324C134.933 16.1491 134.968 16.4574 135.043 16.7533C131.502 16.5866 128.361 14.9783 126.263 12.5324C125.898 13.1283 125.687 13.8241 125.687 14.5616C125.687 15.9616 126.443 17.1991 127.587 17.9241C126.883 17.9074 126.223 17.7241 125.652 17.4199C125.652 17.4366 125.652 17.4533 125.652 17.4699C125.652 19.4283 127.121 21.0574 129.069 21.4283C128.713 21.5199 128.335 21.5699 127.948 21.5699C127.675 21.5699 127.407 21.5449 127.147 21.4949C127.688 23.0991 129.263 24.2658 131.128 24.2991C129.672 25.3824 127.833 26.0283 125.836 26.0283C125.493 26.0283 125.155 26.0074 124.82 25.9699C126.699 27.1283 128.937 27.7949 131.339 27.7949C139.182 27.7949 143.466 21.6408 143.466 16.3033C143.466 16.1283 143.462 15.9533 143.453 15.7824C144.284 15.2116 145.006 14.5033 145.577 13.6908Z" fill="#9083D5"/>
<ellipse cx="192.54" cy="19.5449" rx="19.4598" ry="18.75" fill="black" fill-opacity="0.08"/>
<ellipse cx="192.541" cy="19.7949" rx="3.63249" ry="3.5" fill="#9083D5"/>
<path fill-rule="evenodd" clip-rule="evenodd" d="M189.3 16.133C190.24 15.2264 191.491 14.7217 192.822 14.7217C194.153 14.7217 195.404 15.229 196.345 16.1356C196.942 16.7109 197.368 17.4021 197.6 18.1735H201.34V13.3307C201.34 12.1945 200.428 11.3164 199.249 11.3164H186.439C185.26 11.3164 184.26 12.1945 184.26 13.3307V18.1735H188.044C188.276 17.4021 188.703 16.7082 189.3 16.133ZM199.917 14.882C199.917 15.185 199.662 15.4306 199.347 15.4306H197.639C197.325 15.4306 197.07 15.185 197.07 14.882V13.2363C197.07 12.9334 197.325 12.6877 197.639 12.6877H199.347C199.662 12.6877 199.917 12.9333 199.917 13.2363V14.882Z" fill="#9083D5"/>
<path fill-rule="evenodd" clip-rule="evenodd" d="M196.345 22.9212C195.404 23.8278 194.153 24.3217 192.822 24.3217C191.491 24.3217 190.24 23.8305 189.3 22.9239C188.36 22.0189 187.842 20.7878 187.84 19.5449H184.26V25.6735C184.26 26.8096 185.26 27.7735 186.439 27.7735H199.249C200.428 27.7735 201.34 26.8096 201.34 25.6735V19.5449H197.804C197.802 20.7878 197.284 22.0162 196.345 22.9212Z" fill="#9083D5"/>
</svg>
