<svg width="212" height="39" viewBox="0 0 212 39" fill="none" xmlns="http://www.w3.org/2000/svg">
<ellipse cx="19.7371" cy="19.5449" rx="19.4598" ry="18.75" fill="black" fill-opacity="0.08"/>
<path fill-rule="evenodd" clip-rule="evenodd" d="M21.7272 15.1283V12.6478C21.7272 11.528 21.9942 10.9616 23.8704 10.9616H26.2245V6.79492H22.2964C17.4828 6.79492 15.8946 8.83919 15.8946 12.3483V15.1283H12.7324V19.2949H15.8946V31.7949H21.7272V19.2949H25.6905L26.2245 15.1283H21.7272Z" fill="#9083D5"/>
<ellipse cx="77.3387" cy="19.5449" rx="19.4598" ry="18.75" fill="black" fill-opacity="0.08"/>
<path fill-rule="evenodd" clip-rule="evenodd" d="M85.4452 10.7949H69.8539C69.0023 10.7949 68.2578 11.3857 68.2578 12.1968V27.2523C68.2578 28.0682 69.0023 28.7949 69.8539 28.7949H85.4404C86.2968 28.7949 86.9392 28.0635 86.9392 27.2523V12.1968C86.944 11.3857 86.2968 10.7949 85.4452 10.7949ZM74.0486 25.7987H71.3722V17.781H74.0486V25.7987ZM72.8029 16.562H72.7834C71.9269 16.562 71.3722 15.9478 71.3722 15.1788C71.3722 14.3958 71.9415 13.7957 72.8175 13.7957C73.6934 13.7957 74.2287 14.3911 74.2481 15.1788C74.2481 15.9478 73.6934 16.562 72.8029 16.562ZM83.8297 25.7988H81.1533V21.4148C81.1533 20.3645 80.764 19.6472 79.7957 19.6472C79.056 19.6472 78.618 20.1301 78.4234 20.599C78.3504 20.7678 78.3309 20.9975 78.3309 21.232V25.7988H75.6545V17.7811H78.3309V18.897C78.7202 18.3625 79.3285 17.5935 80.7446 17.5935C82.5013 17.5935 83.8297 18.7094 83.8297 21.1147V25.7988Z" fill="#9083D5"/>
<ellipse cx="134.938" cy="19.5449" rx="19.4598" ry="18.75" fill="black" fill-opacity="0.08"/>
<path fill-rule="evenodd" clip-rule="evenodd" d="M145.575 13.6908C144.81 14.0116 143.992 14.2283 143.13 14.3283C144.01 13.8283 144.687 13.0366 145.004 12.0949C144.181 12.5574 143.271 12.8949 142.298 13.0741C141.52 12.2866 140.411 11.7949 139.189 11.7949C136.835 11.7949 134.931 13.6033 134.931 15.8324C134.931 16.1491 134.966 16.4574 135.041 16.7533C131.5 16.5866 128.359 14.9783 126.261 12.5324C125.896 13.1283 125.685 13.8241 125.685 14.5616C125.685 15.9616 126.441 17.1991 127.585 17.9241C126.881 17.9074 126.222 17.7241 125.65 17.4199C125.65 17.4366 125.65 17.4533 125.65 17.4699C125.65 19.4283 127.119 21.0574 129.067 21.4283C128.711 21.5199 128.333 21.5699 127.946 21.5699C127.673 21.5699 127.405 21.5449 127.145 21.4949C127.686 23.0991 129.261 24.2658 131.126 24.2991C129.67 25.3824 127.831 26.0283 125.834 26.0283C125.491 26.0283 125.153 26.0074 124.818 25.9699C126.697 27.1283 128.935 27.7949 131.337 27.7949C139.18 27.7949 143.464 21.6408 143.464 16.3033C143.464 16.1283 143.46 15.9533 143.451 15.7824C144.282 15.2116 145.004 14.5033 145.575 13.6908Z" fill="#9083D5"/>
<ellipse cx="192.54" cy="19.5449" rx="19.4598" ry="18.75" fill="black" fill-opacity="0.08"/>
<ellipse cx="192.541" cy="19.7949" rx="3.63249" ry="3.5" fill="#9083D5"/>
<path fill-rule="evenodd" clip-rule="evenodd" d="M189.3 16.133C190.24 15.2264 191.491 14.7217 192.822 14.7217C194.153 14.7217 195.404 15.229 196.345 16.1356C196.942 16.7109 197.368 17.4021 197.6 18.1735H201.34V13.3307C201.34 12.1945 200.428 11.3164 199.249 11.3164H186.439C185.26 11.3164 184.26 12.1945 184.26 13.3307V18.1735H188.044C188.276 17.4021 188.703 16.7082 189.3 16.133ZM199.917 14.882C199.917 15.185 199.662 15.4306 199.347 15.4306H197.639C197.325 15.4306 197.07 15.185 197.07 14.882V13.2363C197.07 12.9334 197.325 12.6877 197.639 12.6877H199.347C199.662 12.6877 199.917 12.9333 199.917 13.2363V14.882Z" fill="#9083D5"/>
<path fill-rule="evenodd" clip-rule="evenodd" d="M196.345 22.9212C195.404 23.8278 194.153 24.3217 192.822 24.3217C191.491 24.3217 190.24 23.8305 189.3 22.9239C188.36 22.0189 187.842 20.7878 187.84 19.5449H184.26V25.6735C184.26 26.8096 185.26 27.7735 186.439 27.7735H199.249C200.428 27.7735 201.34 26.8096 201.34 25.6735V19.5449H197.804C197.802 20.7878 197.284 22.0162 196.345 22.9212Z" fill="#9083D5"/>
</svg>
