<svg width="212" height="38" viewBox="0 0 212 38" fill="none" xmlns="http://www.w3.org/2000/svg">
<ellipse cx="19.7371" cy="18.75" rx="19.4598" ry="18.75" fill="black" fill-opacity="0.08"/>
<path fill-rule="evenodd" clip-rule="evenodd" d="M21.7272 14.3333V11.8529C21.7272 10.7331 21.9942 10.1667 23.8704 10.1667H26.2245V6H22.2964C17.4828 6 15.8946 8.04427 15.8946 11.5534V14.3333H12.7324V18.5H15.8946V31H21.7272V18.5H25.6905L26.2245 14.3333H21.7272Z" fill="#9083D5"/>
<ellipse cx="77.3387" cy="18.75" rx="19.4598" ry="18.75" fill="black" fill-opacity="0.08"/>
<path fill-rule="evenodd" clip-rule="evenodd" d="M85.4452 10H69.8539C69.0023 10 68.2578 10.5908 68.2578 11.4019V26.4574C68.2578 27.2732 69.0023 28 69.8539 28H85.4404C86.2968 28 86.9392 27.2686 86.9392 26.4574V11.4019C86.944 10.5908 86.2968 10 85.4452 10ZM74.0486 25.0038H71.3722V16.9861H74.0486V25.0038ZM72.8029 15.7671H72.7834C71.9269 15.7671 71.3722 15.1529 71.3722 14.3839C71.3722 13.6009 71.9415 13.0007 72.8175 13.0007C73.6934 13.0007 74.2287 13.5962 74.2481 14.3839C74.2481 15.1529 73.6934 15.7671 72.8029 15.7671ZM83.8297 25.0038H81.1533V20.6199C81.1533 19.5696 80.764 18.8522 79.7957 18.8522C79.056 18.8522 78.618 19.3352 78.4234 19.8041C78.3504 19.9728 78.3309 20.2026 78.3309 20.437V25.0038H75.6545V16.9861H78.3309V18.102C78.7202 17.5675 79.3285 16.7986 80.7446 16.7986C82.5013 16.7986 83.8297 17.9145 83.8297 20.3198V25.0038Z" fill="#9083D5"/>
<ellipse cx="134.938" cy="18.75" rx="19.4598" ry="18.75" fill="black" fill-opacity="0.08"/>
<path fill-rule="evenodd" clip-rule="evenodd" d="M145.575 12.8958C144.81 13.2167 143.992 13.4333 143.13 13.5333C144.01 13.0333 144.687 12.2417 145.004 11.3C144.181 11.7625 143.271 12.1 142.298 12.2792C141.52 11.4917 140.411 11 139.189 11C136.835 11 134.931 12.8083 134.931 15.0375C134.931 15.3542 134.966 15.6625 135.041 15.9583C131.5 15.7917 128.359 14.1833 126.261 11.7375C125.896 12.3333 125.685 13.0292 125.685 13.7667C125.685 15.1667 126.441 16.4042 127.585 17.1292C126.881 17.1125 126.222 16.9292 125.65 16.625C125.65 16.6417 125.65 16.6583 125.65 16.675C125.65 18.6333 127.119 20.2625 129.067 20.6333C128.711 20.725 128.333 20.775 127.946 20.775C127.673 20.775 127.405 20.75 127.145 20.7C127.686 22.3042 129.261 23.4708 131.126 23.5042C129.67 24.5875 127.831 25.2333 125.834 25.2333C125.491 25.2333 125.153 25.2125 124.818 25.175C126.697 26.3333 128.935 27 131.337 27C139.18 27 143.464 20.8458 143.464 15.5083C143.464 15.3333 143.46 15.1583 143.451 14.9875C144.282 14.4167 145.004 13.7083 145.575 12.8958Z" fill="#9083D5"/>
<ellipse cx="192.54" cy="18.75" rx="19.4598" ry="18.75" fill="black" fill-opacity="0.08"/>
<ellipse cx="192.541" cy="19" rx="3.63249" ry="3.5" fill="#9083D5"/>
<path fill-rule="evenodd" clip-rule="evenodd" d="M189.3 15.3381C190.24 14.4315 191.491 13.9268 192.822 13.9268C194.153 13.9268 195.404 14.4341 196.345 15.3407C196.942 15.916 197.368 16.6072 197.6 17.3786H201.34V12.5358C201.34 11.3996 200.428 10.5215 199.249 10.5215H186.439C185.26 10.5215 184.26 11.3996 184.26 12.5358V17.3786H188.044C188.276 16.6072 188.703 15.9133 189.3 15.3381ZM199.917 14.0871C199.917 14.3901 199.662 14.6357 199.347 14.6357H197.639C197.325 14.6357 197.07 14.3901 197.07 14.0871V12.4414C197.07 12.1384 197.325 11.8928 197.639 11.8928H199.347C199.662 11.8928 199.917 12.1384 199.917 12.4414V14.0871Z" fill="#9083D5"/>
<path fill-rule="evenodd" clip-rule="evenodd" d="M196.345 22.1262C195.404 23.0328 194.153 23.5268 192.822 23.5268C191.491 23.5268 190.24 23.0355 189.3 22.1289C188.36 21.224 187.842 19.9929 187.84 18.75H184.26V24.8786C184.26 26.0147 185.26 26.9786 186.439 26.9786H199.249C200.428 26.9786 201.34 26.0147 201.34 24.8786V18.75H197.804C197.802 19.9929 197.284 21.2213 196.345 22.1262Z" fill="#9083D5"/>
</svg>
