<svg width="53" height="49" viewBox="0 0 53 49" fill="none" xmlns="http://www.w3.org/2000/svg">
<g filter="url(#filter0_d_869_3576)">
<path d="M37.3219 40.1699V37.3127C37.3219 36.9375 37.2501 36.566 37.1105 36.2193C36.971 35.8728 36.7665 35.5578 36.5087 35.2923C36.2507 35.0271 35.9445 34.8166 35.6078 34.6731C35.2708 34.5295 34.9097 34.4556 34.545 34.4556H23.437C19.7547 34.4556 16.2232 32.9505 13.6194 30.2714C11.0156 27.5923 9.55274 23.9588 9.55268 20.1699C9.55268 18.2939 9.91181 16.4362 10.6096 14.703C11.3073 12.9698 12.33 11.3949 13.6193 10.0684C14.9086 8.74181 16.4392 7.68956 18.1237 6.97164C19.8082 6.25373 21.6137 5.88425 23.437 5.88427H34.5442C34.9089 5.88438 35.2702 5.81056 35.6071 5.66703C35.9441 5.52349 36.2504 5.31305 36.5083 5.04773C36.7663 4.78239 36.9708 4.46738 37.1105 4.12068C37.2501 3.77398 37.3219 3.40238 37.3219 3.0271V0.169922H23.4376C20.885 0.169922 18.3574 0.687239 15.9991 1.69233C13.6408 2.69743 11.498 4.17063 9.69308 6.02779C7.88812 7.88498 6.45635 10.0898 5.47954 12.5163C4.50272 14.9428 3.99997 17.5435 4 20.1699C4 25.4741 6.04787 30.5613 9.69312 34.312C13.3384 38.0627 18.2824 40.1699 23.4376 40.1699H37.3219Z" fill="url(#paint0_linear_869_3576)"/>
<path d="M15.1064 20.1699C15.1064 22.4432 15.9841 24.6232 17.5463 26.2305C19.1085 27.8381 21.2273 28.741 23.4366 28.741H37.3219C38.7949 28.741 40.2073 29.3431 41.2488 30.4147C42.2903 31.4863 42.8755 32.9398 42.8755 34.4554V40.1697H48.4292V34.4556C48.4292 31.4246 47.259 28.5177 45.176 26.3743C43.0929 24.2311 40.2677 23.0271 37.3219 23.0271H23.437C22.7006 23.0271 21.9943 22.726 21.4735 22.1903C20.9527 21.6544 20.6602 20.9277 20.6602 20.1699C20.6602 19.4122 20.9527 18.6854 21.4735 18.1496C21.9943 17.6138 22.7006 17.3127 23.437 17.3127H37.3219C40.2677 17.3127 43.0929 16.1087 45.176 13.9654C47.259 11.8222 48.4292 8.91529 48.4292 5.88427V0.169922H42.8746V5.88427C42.8746 7.3996 42.2896 8.85289 41.2484 9.92447C40.2071 10.996 38.7947 11.5982 37.3219 11.5984H23.437C22.343 11.5983 21.2597 11.82 20.249 12.2507C19.2382 12.6815 18.3199 13.3129 17.5463 14.1088C16.7727 14.9048 16.1591 15.8497 15.7405 16.8897C15.3218 17.9297 15.1064 19.0443 15.1064 20.1699Z" fill="url(#paint1_linear_869_3576)"/>
</g>
<defs>
<filter id="filter0_d_869_3576" x="0" y="0.169922" width="52.4287" height="48" filterUnits="userSpaceOnUse" color-interpolation-filters="sRGB">
<feFlood flood-opacity="0" result="BackgroundImageFix"/>
<feColorMatrix in="SourceAlpha" type="matrix" values="0 0 0 0 0 0 0 0 0 0 0 0 0 0 0 0 0 0 127 0" result="hardAlpha"/>
<feOffset dy="4"/>
<feGaussianBlur stdDeviation="2"/>
<feComposite in2="hardAlpha" operator="out"/>
<feColorMatrix type="matrix" values="0 0 0 0 0 0 0 0 0 0 0 0 0 0 0 0 0 0 0.25 0"/>
<feBlend mode="normal" in2="BackgroundImageFix" result="effect1_dropShadow_869_3576"/>
<feBlend mode="normal" in="SourceGraphic" in2="effect1_dropShadow_869_3576" result="shape"/>
</filter>
<linearGradient id="paint0_linear_869_3576" x1="9.0316" y1="20.1699" x2="51.7837" y2="20.1699" gradientUnits="userSpaceOnUse">
<stop stop-color="#817696"/>
<stop offset="1" stop-color="#817698"/>
</linearGradient>
<linearGradient id="paint1_linear_869_3576" x1="9.00839" y1="20.1698" x2="51.7948" y2="20.1698" gradientUnits="userSpaceOnUse">
<stop stop-color="#8575D2"/>
<stop offset="1" stop-color="#9083D5"/>
</linearGradient>
</defs>
</svg>
