<svg width="49" height="48" viewBox="0 0 49 48" fill="none" xmlns="http://www.w3.org/2000/svg">
<g filter="url(#filter0_d_869_3874)">
<path d="M34.5 40V37.1428C34.5 36.7676 34.4354 36.3961 34.3097 36.0494C34.1841 35.7029 34 35.3879 33.7679 35.1224C33.5356 34.8571 33.26 34.6467 32.9568 34.5031C32.6534 34.3596 32.3283 34.2857 32 34.2857H21.9993C18.6841 34.2857 15.5047 32.7806 13.1604 30.1015C10.8162 27.4224 9.49918 23.7889 9.49913 20C9.49913 18.124 9.82246 16.2663 10.4507 14.5331C11.0789 12.7998 11.9996 11.225 13.1604 9.89843C14.3211 8.57189 15.6991 7.51963 17.2157 6.80172C18.7323 6.0838 20.3578 5.71433 21.9993 5.71435H31.9993C32.3276 5.71445 32.6529 5.64064 32.9562 5.49711C33.2596 5.35357 33.5354 5.14313 33.7675 4.87781C33.9998 4.61247 34.1839 4.29746 34.3097 3.95076C34.4354 3.60406 34.5 3.23246 34.5 2.85717V0H21.9999C19.7017 -1.50743e-10 17.4261 0.517317 15.3029 1.52241C13.1797 2.52751 11.2505 4.00071 9.62554 5.85787C8.00051 7.71505 6.71148 9.91984 5.83204 12.3464C4.95261 14.7729 4.49998 17.3736 4.5 20C4.5 25.3042 6.34372 30.3914 9.62557 34.1421C12.9074 37.8928 17.3586 40 21.9999 40H34.5Z" fill="url(#paint0_linear_869_3874)"/>
<path d="M14.5 20C14.5 22.2733 15.2902 24.4533 16.6966 26.0606C18.1031 27.6681 20.0107 28.5711 21.9997 28.5711H34.5008C35.827 28.5711 37.0986 29.1732 38.0362 30.2448C38.9739 31.3164 39.5007 32.7699 39.5007 34.2854V39.9998H44.5008V34.2857C44.5008 31.2547 43.4473 28.3478 41.572 26.2044C39.6965 24.0612 37.1529 22.8572 34.5008 22.8572H22.0001C21.3371 22.8572 20.7012 22.5561 20.2323 22.0204C19.7635 21.4845 19.5001 20.7578 19.5001 20C19.5001 19.2422 19.7635 18.5155 20.2323 17.9797C20.7012 17.4438 21.3371 17.1428 22.0001 17.1428H34.5008C37.1529 17.1428 39.6965 15.9388 41.572 13.7955C43.4473 11.6523 44.5008 8.74536 44.5008 5.71435V0H39.5V5.71435C39.5 7.22967 38.9733 8.68297 38.0358 9.75455C37.0984 10.8261 35.8268 11.4282 34.5008 11.4285H22.0001C21.0152 11.4284 20.0399 11.6501 19.1299 12.0808C18.2199 12.5116 17.3931 13.143 16.6966 13.9389C16.0002 14.7348 15.4477 15.6798 15.0708 16.7198C14.6939 17.7597 14.5 18.8744 14.5 20Z" fill="url(#paint1_linear_869_3874)"/>
</g>
<defs>
<filter id="filter0_d_869_3874" x="0.5" y="0" width="48" height="48" filterUnits="userSpaceOnUse" color-interpolation-filters="sRGB">
<feFlood flood-opacity="0" result="BackgroundImageFix"/>
<feColorMatrix in="SourceAlpha" type="matrix" values="0 0 0 0 0 0 0 0 0 0 0 0 0 0 0 0 0 0 127 0" result="hardAlpha"/>
<feOffset dy="4"/>
<feGaussianBlur stdDeviation="2"/>
<feComposite in2="hardAlpha" operator="out"/>
<feColorMatrix type="matrix" values="0 0 0 0 0 0 0 0 0 0 0 0 0 0 0 0 0 0 0.25 0"/>
<feBlend mode="normal" in2="BackgroundImageFix" result="effect1_dropShadow_869_3874"/>
<feBlend mode="normal" in="SourceGraphic" in2="effect1_dropShadow_869_3874" result="shape"/>
</filter>
<linearGradient id="paint0_linear_869_3874" x1="9.03" y1="20" x2="47.5201" y2="20" gradientUnits="userSpaceOnUse">
<stop stop-color="#817696"/>
<stop offset="1" stop-color="#817698"/>
</linearGradient>
<linearGradient id="paint1_linear_869_3874" x1="9.00986" y1="19.9999" x2="47.5309" y2="19.9999" gradientUnits="userSpaceOnUse">
<stop stop-color="#8575D2"/>
<stop offset="1" stop-color="#9083D5"/>
</linearGradient>
</defs>
</svg>
