<svg width="53" height="48" viewBox="0 0 53 48" fill="none" xmlns="http://www.w3.org/2000/svg">
<g filter="url(#filter0_d_869_3806)">
<path d="M37.3219 40V37.1428C37.3219 36.7676 37.2501 36.3961 37.1105 36.0494C36.971 35.7029 36.7665 35.3879 36.5087 35.1224C36.2507 34.8571 35.9445 34.6467 35.6078 34.5031C35.2708 34.3596 34.9097 34.2857 34.545 34.2857H23.437C19.7547 34.2857 16.2232 32.7806 13.6194 30.1015C11.0156 27.4224 9.55274 23.7889 9.55268 20C9.55268 18.124 9.91181 16.2663 10.6096 14.5331C11.3073 12.7998 12.33 11.225 13.6193 9.89843C14.9086 8.57189 16.4392 7.51963 18.1237 6.80172C19.8082 6.0838 21.6137 5.71433 23.437 5.71435H34.5442C34.9089 5.71445 35.2702 5.64064 35.6071 5.49711C35.9441 5.35357 36.2504 5.14313 36.5083 4.87781C36.7663 4.61247 36.9708 4.29746 37.1105 3.95076C37.2501 3.60406 37.3219 3.23246 37.3219 2.85717V0H23.4376C20.885 -1.50743e-10 18.3574 0.517317 15.9991 1.52241C13.6408 2.52751 11.498 4.00071 9.69308 5.85787C7.88812 7.71505 6.45635 9.91984 5.47954 12.3464C4.50272 14.7729 3.99997 17.3736 4 20C4 25.3042 6.04787 30.3914 9.69312 34.1421C13.3384 37.8928 18.2824 40 23.4376 40H37.3219Z" fill="url(#paint0_linear_869_3806)"/>
<path d="M15.1055 20C15.1055 22.2733 15.9831 24.4533 17.5453 26.0606C19.1075 27.6681 21.2263 28.5711 23.4356 28.5711H37.321C38.794 28.5711 40.2063 29.1732 41.2478 30.2448C42.2893 31.3164 42.8745 32.7699 42.8745 34.2854V39.9998H48.4282V34.2857C48.4282 31.2547 47.258 28.3478 45.1751 26.2044C43.0919 24.0612 40.2667 22.8572 37.321 22.8572H23.436C22.6996 22.8572 21.9933 22.5561 21.4725 22.0204C20.9517 21.4845 20.6592 20.7578 20.6592 20C20.6592 19.2422 20.9517 18.5155 21.4725 17.9797C21.9933 17.4438 22.6996 17.1428 23.436 17.1428H37.321C40.2667 17.1428 43.0919 15.9388 45.1751 13.7955C47.258 11.6523 48.4282 8.74536 48.4282 5.71435V0H42.8737V5.71435C42.8737 7.22967 42.2887 8.68297 41.2474 9.75455C40.2061 10.8261 38.7937 11.4282 37.321 11.4285H23.436C22.342 11.4284 21.2588 11.6501 20.248 12.0808C19.2373 12.5116 18.3189 13.143 17.5453 13.9389C16.7718 14.7348 16.1581 15.6798 15.7395 16.7198C15.3209 17.7597 15.1054 18.8744 15.1055 20Z" fill="url(#paint1_linear_869_3806)"/>
</g>
<defs>
<filter id="filter0_d_869_3806" x="0" y="0" width="52.4277" height="48" filterUnits="userSpaceOnUse" color-interpolation-filters="sRGB">
<feFlood flood-opacity="0" result="BackgroundImageFix"/>
<feColorMatrix in="SourceAlpha" type="matrix" values="0 0 0 0 0 0 0 0 0 0 0 0 0 0 0 0 0 0 127 0" result="hardAlpha"/>
<feOffset dy="4"/>
<feGaussianBlur stdDeviation="2"/>
<feComposite in2="hardAlpha" operator="out"/>
<feColorMatrix type="matrix" values="0 0 0 0 0 0 0 0 0 0 0 0 0 0 0 0 0 0 0.25 0"/>
<feBlend mode="normal" in2="BackgroundImageFix" result="effect1_dropShadow_869_3806"/>
<feBlend mode="normal" in="SourceGraphic" in2="effect1_dropShadow_869_3806" result="shape"/>
</filter>
<linearGradient id="paint0_linear_869_3806" x1="9.0316" y1="20" x2="51.7837" y2="20" gradientUnits="userSpaceOnUse">
<stop stop-color="#817696"/>
<stop offset="1" stop-color="#817698"/>
</linearGradient>
<linearGradient id="paint1_linear_869_3806" x1="9.00741" y1="19.9999" x2="51.7938" y2="19.9999" gradientUnits="userSpaceOnUse">
<stop stop-color="#8575D2"/>
<stop offset="1" stop-color="#9083D5"/>
</linearGradient>
</defs>
</svg>
