<svg width="48" height="48" viewBox="0 0 48 48" fill="none" xmlns="http://www.w3.org/2000/svg">
<g filter="url(#filter0_d_25_500)">
<path d="M34 40V37.1428C34 36.7676 33.9354 36.3961 33.8097 36.0494C33.6841 35.7029 33.5 35.3879 33.2679 35.1224C33.0356 34.8571 32.76 34.6467 32.4568 34.5031C32.1534 34.3596 31.8283 34.2857 31.5 34.2857H21.4993C18.1841 34.2857 15.0047 32.7806 12.6604 30.1015C10.3162 27.4224 8.99918 23.7889 8.99913 20C8.99913 18.124 9.32246 16.2663 9.95066 14.5331C10.5789 12.7998 11.4996 11.225 12.6604 9.89843C13.8211 8.57189 15.1991 7.51963 16.7157 6.80172C18.2323 6.0838 19.8578 5.71433 21.4993 5.71435H31.4993C31.8276 5.71445 32.1529 5.64064 32.4562 5.49711C32.7596 5.35357 33.0354 5.14313 33.2675 4.87781C33.4998 4.61247 33.6839 4.29746 33.8097 3.95076C33.9354 3.60406 34 3.23246 34 2.85717V0H21.4999C19.2017 -1.50743e-10 16.9261 0.517317 14.8029 1.52241C12.6797 2.52751 10.7505 4.00071 9.12554 5.85787C7.50051 7.71505 6.21148 9.91984 5.33204 12.3464C4.45261 14.7729 3.99998 17.3736 4 20C4 25.3042 5.84372 30.3914 9.12557 34.1421C12.4074 37.8928 16.8586 40 21.4999 40H34Z" fill="url(#paint0_linear_25_500)"/>
<path d="M13.9992 20C13.9992 22.2733 14.7894 24.4533 16.1958 26.0606C17.6023 27.6681 19.5099 28.5711 21.4989 28.5711H34C35.3262 28.5711 36.5978 29.1732 37.5354 30.2448C38.4731 31.3164 38.9999 32.7699 38.9999 34.2854V39.9998H44V34.2857C44 31.2547 42.9465 28.3478 41.0712 26.2044C39.1957 24.0612 36.6521 22.8572 34 22.8572H21.4993C20.8363 22.8572 20.2004 22.5561 19.7315 22.0204C19.2627 21.4845 18.9993 20.7578 18.9993 20C18.9993 19.2422 19.2627 18.5155 19.7315 17.9797C20.2004 17.4438 20.8363 17.1428 21.4993 17.1428H34C36.6521 17.1428 39.1957 15.9388 41.0712 13.7955C42.9465 11.6523 44 8.74536 44 5.71435V0H38.9992V5.71435C38.9992 7.22967 38.4725 8.68297 37.535 9.75455C36.5976 10.8261 35.326 11.4282 34 11.4285H21.4993C20.5144 11.4284 19.5391 11.6501 18.6291 12.0808C17.7191 12.5116 16.8923 13.143 16.1958 13.9389C15.4994 14.7348 14.9469 15.6798 14.57 16.7198C14.1931 17.7597 13.9992 18.8744 13.9992 20Z" fill="url(#paint1_linear_25_500)"/>
</g>
<defs>
<filter id="filter0_d_25_500" x="0" y="0" width="48" height="48" filterUnits="userSpaceOnUse" color-interpolation-filters="sRGB">
<feFlood flood-opacity="0" result="BackgroundImageFix"/>
<feColorMatrix in="SourceAlpha" type="matrix" values="0 0 0 0 0 0 0 0 0 0 0 0 0 0 0 0 0 0 127 0" result="hardAlpha"/>
<feOffset dy="4"/>
<feGaussianBlur stdDeviation="2"/>
<feComposite in2="hardAlpha" operator="out"/>
<feColorMatrix type="matrix" values="0 0 0 0 0 0 0 0 0 0 0 0 0 0 0 0 0 0 0.25 0"/>
<feBlend mode="normal" in2="BackgroundImageFix" result="effect1_dropShadow_25_500"/>
<feBlend mode="normal" in="SourceGraphic" in2="effect1_dropShadow_25_500" result="shape"/>
</filter>
<linearGradient id="paint0_linear_25_500" x1="8.53" y1="20" x2="47.0201" y2="20" gradientUnits="userSpaceOnUse">
<stop stop-color="#817696"/>
<stop offset="1" stop-color="#817698"/>
</linearGradient>
<linearGradient id="paint1_linear_25_500" x1="8.50907" y1="19.9999" x2="47.0301" y2="19.9999" gradientUnits="userSpaceOnUse">
<stop stop-color="#8575D2"/>
<stop offset="1" stop-color="#9083D5"/>
</linearGradient>
</defs>
</svg>
