<svg width="53" height="49" viewBox="0 0 53 49" fill="none" xmlns="http://www.w3.org/2000/svg">
<g filter="url(#filter0_d_869_7418)">
<path d="M37.3219 40.7949V37.9377C37.3219 37.5625 37.2501 37.191 37.1105 36.8443C36.971 36.4978 36.7665 36.1828 36.5087 35.9173C36.2507 35.6521 35.9445 35.4416 35.6078 35.2981C35.2708 35.1545 34.9097 35.0806 34.545 35.0806H23.437C19.7547 35.0806 16.2232 33.5755 13.6194 30.8964C11.0156 28.2173 9.55274 24.5838 9.55268 20.7949C9.55268 18.9189 9.91181 17.0612 10.6096 15.328C11.3073 13.5948 12.33 12.0199 13.6193 10.6934C14.9086 9.36681 16.4392 8.31456 18.1237 7.59664C19.8082 6.87873 21.6137 6.50925 23.437 6.50927H34.5442C34.9089 6.50938 35.2702 6.43556 35.6071 6.29203C35.9441 6.14849 36.2504 5.93805 36.5083 5.67273C36.7663 5.40739 36.9708 5.09238 37.1105 4.74568C37.2501 4.39898 37.3219 4.02738 37.3219 3.6521V0.794922H23.4376C20.885 0.794922 18.3574 1.31224 15.9991 2.31733C13.6408 3.32243 11.498 4.79563 9.69308 6.65279C7.88812 8.50998 6.45635 10.7148 5.47954 13.1413C4.50272 15.5678 3.99997 18.1685 4 20.7949C4 26.0991 6.04787 31.1863 9.69312 34.937C13.3384 38.6877 18.2824 40.7949 23.4376 40.7949H37.3219Z" fill="url(#paint0_linear_869_7418)"/>
<path d="M15.1064 20.7949C15.1064 23.0682 15.9841 25.2482 17.5463 26.8555C19.1085 28.4631 21.2273 29.366 23.4366 29.366H37.3219C38.7949 29.366 40.2073 29.9681 41.2488 31.0397C42.2903 32.1113 42.8755 33.5648 42.8755 35.0804V40.7947H48.4292V35.0806C48.4292 32.0496 47.259 29.1427 45.176 26.9993C43.0929 24.8561 40.2677 23.6521 37.3219 23.6521H23.437C22.7006 23.6521 21.9943 23.351 21.4735 22.8153C20.9527 22.2794 20.6602 21.5527 20.6602 20.7949C20.6602 20.0372 20.9527 19.3104 21.4735 18.7746C21.9943 18.2388 22.7006 17.9377 23.437 17.9377H37.3219C40.2677 17.9377 43.0929 16.7337 45.176 14.5904C47.259 12.4472 48.4292 9.54029 48.4292 6.50927V0.794922H42.8746V6.50927C42.8746 8.0246 42.2896 9.47789 41.2484 10.5495C40.2071 11.621 38.7947 12.2232 37.3219 12.2234H23.437C22.343 12.2233 21.2597 12.445 20.249 12.8757C19.2382 13.3065 18.3199 13.9379 17.5463 14.7338C16.7727 15.5298 16.1591 16.4747 15.7405 17.5147C15.3218 18.5547 15.1064 19.6693 15.1064 20.7949Z" fill="url(#paint1_linear_869_7418)"/>
</g>
<defs>
<filter id="filter0_d_869_7418" x="0" y="0.794922" width="52.4287" height="48" filterUnits="userSpaceOnUse" color-interpolation-filters="sRGB">
<feFlood flood-opacity="0" result="BackgroundImageFix"/>
<feColorMatrix in="SourceAlpha" type="matrix" values="0 0 0 0 0 0 0 0 0 0 0 0 0 0 0 0 0 0 127 0" result="hardAlpha"/>
<feOffset dy="4"/>
<feGaussianBlur stdDeviation="2"/>
<feComposite in2="hardAlpha" operator="out"/>
<feColorMatrix type="matrix" values="0 0 0 0 0 0 0 0 0 0 0 0 0 0 0 0 0 0 0.25 0"/>
<feBlend mode="normal" in2="BackgroundImageFix" result="effect1_dropShadow_869_7418"/>
<feBlend mode="normal" in="SourceGraphic" in2="effect1_dropShadow_869_7418" result="shape"/>
</filter>
<linearGradient id="paint0_linear_869_7418" x1="9.0316" y1="20.7949" x2="51.7837" y2="20.7949" gradientUnits="userSpaceOnUse">
<stop stop-color="#817696"/>
<stop offset="1" stop-color="#817698"/>
</linearGradient>
<linearGradient id="paint1_linear_869_7418" x1="9.00839" y1="20.7948" x2="51.7948" y2="20.7948" gradientUnits="userSpaceOnUse">
<stop stop-color="#8575D2"/>
<stop offset="1" stop-color="#9083D5"/>
</linearGradient>
</defs>
</svg>
